<svg width="1200" height="236" viewBox="0 0 1200 236" fill="none" xmlns="http://www.w3.org/2000/svg">
<g clip-path="url(#clip0_119_186)">
<rect width="1200" height="236" fill="#FFF2D3"/>
<path fill-rule="evenodd" clip-rule="evenodd" d="M-157 -44.8043V-1.35547C-156.916 -1.35584 -156.832 -1.356 -156.748 -1.356C-129.643 -1.356 -107.072 18.0724 -102.206 43.7589C-126.128 46.4675 -146.429 61.123 -157 81.615V125.064C-156.916 125.063 -156.832 125.063 -156.748 125.063C-129.383 125.063 -106.639 144.866 -102.07 170.92C-126.052 173.588 -146.409 188.26 -157 208.791V252.24C-156.916 252.239 -156.832 252.239 -156.748 252.239C-129.904 252.239 -107.507 271.295 -102.351 296.614C-113.413 297.889 -124.832 301.72 -133.733 307.5H-54.6044C-63.3735 301.806 -74.6195 298.003 -85.4943 296.672C-80.3674 271.352 -57.9965 252.279 -31.1715 252.239H-30.9996C-4.1738 252.279 18.1948 271.352 23.3227 296.673C12.4484 298.003 1.20164 301.806 -7.56668 307.5H71.5618C62.8593 301.849 51.6996 298.061 40.9192 296.703C46.0206 271.437 68.287 252.385 95.025 252.24L95.1355 252.239H95.3331H95.3376C122.188 252.241 144.593 271.312 149.736 296.642C138.767 297.947 127.435 301.763 118.6 307.5H197.729C188.894 301.763 177.561 297.947 166.593 296.642C171.736 271.31 194.142 252.239 220.995 252.239H221.132L221.304 252.24C221.369 252.241 221.435 252.241 221.5 252.241V208.791C221.415 208.955 221.331 209.12 221.248 209.285C210.767 188.566 190.378 173.712 166.313 170.948C170.869 144.881 193.621 125.063 220.995 125.063H221.132L221.304 125.064C221.369 125.065 221.435 125.065 221.5 125.065V81.615C221.415 81.7793 221.331 81.9435 221.248 82.1086C210.785 61.4288 190.455 46.5909 166.448 43.7877C171.302 18.0875 193.882 -1.356 220.995 -1.356L221.132 -1.35585L221.304 -1.35516C221.369 -1.35479 221.435 -1.35433 221.5 -1.35373V-44.8044C221.415 -44.6401 221.331 -44.4755 221.248 -44.3104C215.797 -55.0845 207.667 -64.273 197.735 -71H118.594C108.662 -64.273 100.531 -55.0845 95.081 -44.3104C89.6306 -55.0845 81.5004 -64.273 71.5678 -71H-7.57274C-17.5053 -64.273 -25.6348 -55.0846 -31.0859 -44.3107C-36.5363 -55.0846 -44.6657 -64.273 -54.5983 -71H-133.739C-143.52 -64.376 -151.552 -55.3653 -157 -44.8043ZM-93.8084 58.4485L-93.9466 58.4478L-94.0386 58.447H-94.1689C-123.593 58.447 -147.67 81.3387 -149.562 110.284C-125.27 112.738 -104.612 127.496 -93.9164 148.232C-83.2945 127.638 -62.8481 112.94 -38.7717 110.336C-40.6309 81.4848 -64.5309 58.634 -93.8084 58.4485ZM-85.6388 43.8165C-80.8019 18.1292 -58.2569 -1.31512 -31.1715 -1.35592H-30.9996C-3.91339 -1.31512 18.6293 18.1284 23.4673 43.8165C-0.431961 46.6931 -20.6598 61.5 -31.0859 82.1086C-41.5121 61.5 -61.7399 46.6931 -85.6388 43.8165ZM40.7746 43.8467C64.5663 46.7953 84.6912 61.5712 95.081 82.1086C105.543 61.4288 125.874 46.5909 149.881 43.7877C145.028 18.0883 122.45 -1.35403 95.3376 -1.356H95.3331L95.1355 -1.35577L95.025 -1.35516C68.0273 -1.20861 45.5876 18.214 40.7746 43.8467ZM-93.9164 21.8135C-104.612 1.07693 -125.27 -13.6818 -149.562 -16.1351C-147.67 -45.0804 -123.593 -67.972 -94.1689 -67.972C-64.727 -67.972 -40.6385 -45.0528 -38.7717 -16.0828C-62.8481 -13.4784 -83.2945 1.21947 -93.9164 21.8135ZM-23.3993 -16.0828C0.965469 -13.447 21.6142 1.57427 32.1236 22.5576C42.5974 1.64642 63.1402 -13.3436 87.3967 -16.0551C85.5428 -45.0382 61.4483 -67.972 31.9979 -67.972C2.55592 -67.972 -21.5326 -45.0527 -23.3993 -16.0828ZM158.164 21.8143C147.506 1.14824 126.954 -13.5803 102.769 -16.1095C104.649 -45.0668 128.732 -67.972 158.164 -67.972C187.597 -67.972 211.679 -45.0668 213.56 -16.1094C189.374 -13.5803 168.823 1.14824 158.164 21.8143ZM-31.0859 209.285C-41.531 188.637 -61.8156 173.813 -85.7731 170.977C-81.2341 144.923 -58.5173 125.105 -31.1715 125.063H-30.9996C-3.65375 125.105 19.0616 144.922 23.6013 170.977C-0.356262 173.813 -20.6401 188.637 -31.0859 209.285ZM95.081 209.285C84.6715 188.709 64.4906 173.915 40.6413 171.006C45.1568 145.008 67.7677 125.212 95.025 125.064L95.1355 125.063H95.3331H95.3376C122.709 125.065 145.46 144.883 150.016 170.948C125.95 173.712 105.562 188.566 95.081 209.285ZM-23.3993 110.336C0.965469 112.972 21.6142 127.993 32.1236 148.977C42.5974 128.065 63.1402 113.075 87.3967 110.364C85.5428 81.3811 61.4483 58.447 31.9979 58.447C2.55592 58.447 -21.5326 81.3659 -23.3993 110.336ZM158.164 148.233C147.506 127.567 126.954 112.839 102.769 110.31C104.649 81.3523 128.732 58.447 158.164 58.447C187.597 58.447 211.679 81.3523 213.56 110.31C189.374 112.839 168.823 127.567 158.164 148.233ZM-93.9164 275.409C-104.612 254.672 -125.27 239.914 -149.562 237.46C-147.67 208.515 -123.593 185.623 -94.1689 185.623C-64.727 185.623 -40.6385 208.542 -38.7717 237.512C-62.8481 240.116 -83.2945 254.814 -93.9164 275.409ZM-23.3993 237.512C0.965469 240.148 21.6142 255.169 32.1236 276.153C42.5974 255.241 63.1402 240.251 87.3967 237.54C85.5428 208.557 61.4483 185.623 31.9979 185.623C2.55592 185.623 -21.5326 208.542 -23.3993 237.512ZM158.164 275.409C147.506 254.743 126.954 240.015 102.769 237.486C104.649 208.528 128.732 185.623 158.164 185.623C187.597 185.623 211.679 208.528 213.56 237.486C189.374 240.015 168.823 254.743 158.164 275.409Z" fill="#FFEAB7"/>
<path fill-rule="evenodd" clip-rule="evenodd" d="M221.5 -44.8043V-1.35547C221.584 -1.35584 221.668 -1.356 221.752 -1.356C248.857 -1.356 271.428 18.0724 276.294 43.7589C252.372 46.4675 232.071 61.123 221.5 81.615V125.064C221.584 125.063 221.668 125.063 221.752 125.063C249.117 125.063 271.861 144.866 276.43 170.92C252.448 173.588 232.091 188.26 221.5 208.791V252.24C221.584 252.239 221.668 252.239 221.752 252.239C248.596 252.239 270.993 271.295 276.149 296.614C265.087 297.889 253.668 301.72 244.767 307.5H323.896C315.127 301.806 303.881 298.003 293.006 296.672C298.133 271.352 320.503 252.279 347.329 252.239H347.5C374.326 252.279 396.695 271.352 401.823 296.673C390.948 298.003 379.702 301.806 370.933 307.5H450.062C441.359 301.849 430.2 298.061 419.419 296.703C424.521 271.437 446.787 252.385 473.525 252.24L473.636 252.239H473.833H473.838C500.688 252.241 523.093 271.312 528.236 296.642C517.267 297.947 505.935 301.763 497.1 307.5H576.229C567.394 301.763 556.061 297.947 545.093 296.642C550.236 271.31 572.642 252.239 599.495 252.239H599.632L599.804 252.24C599.869 252.241 599.935 252.241 600 252.241V208.791C599.915 208.955 599.831 209.12 599.748 209.285C589.267 188.566 568.878 173.712 544.813 170.948C549.369 144.881 572.121 125.063 599.495 125.063H599.632L599.804 125.064C599.869 125.065 599.935 125.065 600 125.065V81.615C599.915 81.7793 599.831 81.9435 599.748 82.1086C589.285 61.4288 568.955 46.5909 544.948 43.7877C549.802 18.0875 572.382 -1.356 599.495 -1.356L599.632 -1.35585L599.804 -1.35516C599.869 -1.35479 599.935 -1.35433 600 -1.35373V-44.8044C599.915 -44.6401 599.831 -44.4755 599.748 -44.3104C594.297 -55.0845 586.167 -64.273 576.235 -71H497.094C487.162 -64.273 479.031 -55.0845 473.581 -44.3104C468.131 -55.0845 460 -64.273 450.068 -71H370.927C360.995 -64.273 352.865 -55.0846 347.414 -44.3107C341.964 -55.0846 333.834 -64.273 323.902 -71H244.761C234.98 -64.376 226.948 -55.3653 221.5 -44.8043ZM284.692 58.4485L284.553 58.4478L284.461 58.447H284.331C254.907 58.447 230.83 81.3387 228.938 110.284C253.23 112.738 273.888 127.496 284.584 148.232C295.205 127.638 315.652 112.94 339.728 110.336C337.869 81.4848 313.969 58.634 284.692 58.4485ZM292.861 43.8165C297.698 18.1292 320.243 -1.31512 347.329 -1.35592H347.5C374.587 -1.31512 397.129 18.1284 401.967 43.8165C378.068 46.6931 357.84 61.5 347.414 82.1086C336.988 61.5 316.76 46.6931 292.861 43.8165ZM419.275 43.8467C443.066 46.7953 463.191 61.5712 473.581 82.1086C484.043 61.4288 504.374 46.5909 528.381 43.7877C523.528 18.0883 500.95 -1.35403 473.838 -1.356H473.833L473.636 -1.35577L473.525 -1.35516C446.527 -1.20861 424.088 18.214 419.275 43.8467ZM284.584 21.8135C273.888 1.07693 253.23 -13.6818 228.938 -16.1351C230.83 -45.0804 254.907 -67.972 284.331 -67.972C313.773 -67.972 337.861 -45.0528 339.728 -16.0828C315.652 -13.4784 295.205 1.21947 284.584 21.8135ZM355.101 -16.0828C379.465 -13.447 400.114 1.57427 410.624 22.5576C421.097 1.64642 441.64 -13.3436 465.897 -16.0551C464.043 -45.0382 439.948 -67.972 410.498 -67.972C381.056 -67.972 356.967 -45.0527 355.101 -16.0828ZM536.664 21.8143C526.006 1.14824 505.454 -13.5803 481.269 -16.1095C483.149 -45.0668 507.232 -67.972 536.664 -67.972C566.097 -67.972 590.179 -45.0668 592.06 -16.1094C567.874 -13.5803 547.323 1.14824 536.664 21.8143ZM347.414 209.285C336.969 188.637 316.684 173.813 292.727 170.977C297.266 144.923 319.983 125.105 347.329 125.063H347.5C374.846 125.105 397.562 144.922 402.101 170.977C378.144 173.813 357.86 188.637 347.414 209.285ZM473.581 209.285C463.172 188.709 442.991 173.915 419.141 171.006C423.657 145.008 446.268 125.212 473.525 125.064L473.636 125.063H473.833H473.838C501.209 125.065 523.96 144.883 528.516 170.948C504.45 173.712 484.062 188.566 473.581 209.285ZM355.101 110.336C379.465 112.972 400.114 127.993 410.624 148.977C421.097 128.065 441.64 113.075 465.897 110.364C464.043 81.3811 439.948 58.447 410.498 58.447C381.056 58.447 356.967 81.3659 355.101 110.336ZM536.664 148.233C526.006 127.567 505.454 112.839 481.269 110.31C483.149 81.3523 507.232 58.447 536.664 58.447C566.097 58.447 590.179 81.3523 592.06 110.31C567.874 112.839 547.323 127.567 536.664 148.233ZM284.584 275.409C273.888 254.672 253.23 239.914 228.938 237.46C230.83 208.515 254.907 185.623 284.331 185.623C313.773 185.623 337.861 208.542 339.728 237.512C315.652 240.116 295.205 254.814 284.584 275.409ZM355.101 237.512C379.465 240.148 400.114 255.169 410.624 276.153C421.097 255.241 441.64 240.251 465.897 237.54C464.043 208.557 439.948 185.623 410.498 185.623C381.056 185.623 356.967 208.542 355.101 237.512ZM536.664 275.409C526.006 254.743 505.454 240.015 481.269 237.486C483.149 208.528 507.232 185.623 536.664 185.623C566.097 185.623 590.179 208.528 592.06 237.486C567.874 240.015 547.323 254.743 536.664 275.409Z" fill="#FFEAB7"/>
<path fill-rule="evenodd" clip-rule="evenodd" d="M600 -44.8043V-1.35547C600.084 -1.35584 600.168 -1.356 600.252 -1.356C627.357 -1.356 649.928 18.0724 654.794 43.7589C630.872 46.4675 610.571 61.123 600 81.615V125.064C600.084 125.063 600.168 125.063 600.252 125.063C627.617 125.063 650.361 144.866 654.93 170.92C630.948 173.588 610.591 188.26 600 208.791V252.24C600.084 252.239 600.168 252.239 600.252 252.239C627.096 252.239 649.493 271.295 654.649 296.614C643.587 297.889 632.168 301.72 623.267 307.5H702.396C693.627 301.806 682.381 298.003 671.506 296.672C676.633 271.352 699.003 252.279 725.829 252.239H726C752.826 252.279 775.195 271.352 780.323 296.673C769.448 298.003 758.202 301.806 749.433 307.5H828.562C819.859 301.849 808.7 298.061 797.919 296.703C803.021 271.437 825.287 252.385 852.025 252.24L852.136 252.239H852.333H852.338C879.188 252.241 901.593 271.312 906.736 296.642C895.767 297.947 884.435 301.763 875.6 307.5H954.729C945.894 301.763 934.561 297.947 923.593 296.642C928.736 271.31 951.142 252.239 977.995 252.239H978.132L978.304 252.24C978.369 252.241 978.435 252.241 978.5 252.241V208.791C978.415 208.955 978.331 209.12 978.248 209.285C967.767 188.566 947.378 173.712 923.313 170.948C927.869 144.881 950.621 125.063 977.995 125.063H978.132L978.304 125.064C978.369 125.065 978.435 125.065 978.5 125.065V81.615C978.415 81.7793 978.331 81.9435 978.248 82.1086C967.785 61.4288 947.455 46.5909 923.448 43.7877C928.302 18.0875 950.882 -1.356 977.995 -1.356L978.132 -1.35585L978.304 -1.35516C978.369 -1.35479 978.435 -1.35433 978.5 -1.35373V-44.8044C978.415 -44.6401 978.331 -44.4755 978.248 -44.3104C972.797 -55.0845 964.667 -64.273 954.735 -71H875.594C865.662 -64.273 857.531 -55.0845 852.081 -44.3104C846.631 -55.0845 838.5 -64.273 828.568 -71H749.427C739.495 -64.273 731.365 -55.0846 725.914 -44.3107C720.464 -55.0846 712.334 -64.273 702.402 -71H623.261C613.48 -64.376 605.448 -55.3653 600 -44.8043ZM663.192 58.4485L663.053 58.4478L662.961 58.447H662.831C633.407 58.447 609.33 81.3387 607.438 110.284C631.73 112.738 652.388 127.496 663.084 148.232C673.705 127.638 694.152 112.94 718.228 110.336C716.369 81.4848 692.469 58.634 663.192 58.4485ZM671.361 43.8165C676.198 18.1292 698.743 -1.31512 725.829 -1.35592H726C753.087 -1.31512 775.629 18.1284 780.467 43.8165C756.568 46.6931 736.34 61.5 725.914 82.1086C715.488 61.5 695.26 46.6931 671.361 43.8165ZM797.775 43.8467C821.566 46.7953 841.691 61.5712 852.081 82.1086C862.543 61.4288 882.874 46.5909 906.881 43.7877C902.028 18.0883 879.45 -1.35403 852.338 -1.356H852.333L852.136 -1.35577L852.025 -1.35516C825.027 -1.20861 802.588 18.214 797.775 43.8467ZM663.084 21.8135C652.388 1.07693 631.73 -13.6818 607.438 -16.1351C609.33 -45.0804 633.407 -67.972 662.831 -67.972C692.273 -67.972 716.361 -45.0528 718.228 -16.0828C694.152 -13.4784 673.705 1.21947 663.084 21.8135ZM733.601 -16.0828C757.965 -13.447 778.614 1.57427 789.124 22.5576C799.597 1.64642 820.14 -13.3436 844.397 -16.0551C842.543 -45.0382 818.448 -67.972 788.998 -67.972C759.556 -67.972 735.467 -45.0527 733.601 -16.0828ZM915.164 21.8143C904.506 1.14824 883.954 -13.5803 859.769 -16.1095C861.649 -45.0668 885.732 -67.972 915.164 -67.972C944.597 -67.972 968.679 -45.0668 970.56 -16.1094C946.374 -13.5803 925.823 1.14824 915.164 21.8143ZM725.914 209.285C715.469 188.637 695.184 173.813 671.227 170.977C675.766 144.923 698.483 125.105 725.829 125.063H726C753.346 125.105 776.062 144.922 780.601 170.977C756.644 173.813 736.36 188.637 725.914 209.285ZM852.081 209.285C841.672 188.709 821.491 173.915 797.641 171.006C802.157 145.008 824.768 125.212 852.025 125.064L852.136 125.063H852.333H852.338C879.709 125.065 902.46 144.883 907.016 170.948C882.95 173.712 862.562 188.566 852.081 209.285ZM733.601 110.336C757.965 112.972 778.614 127.993 789.124 148.977C799.597 128.065 820.14 113.075 844.397 110.364C842.543 81.3811 818.448 58.447 788.998 58.447C759.556 58.447 735.467 81.3659 733.601 110.336ZM915.164 148.233C904.506 127.567 883.954 112.839 859.769 110.31C861.649 81.3523 885.732 58.447 915.164 58.447C944.597 58.447 968.679 81.3523 970.56 110.31C946.374 112.839 925.823 127.567 915.164 148.233ZM663.084 275.409C652.388 254.672 631.73 239.914 607.438 237.46C609.33 208.515 633.407 185.623 662.831 185.623C692.273 185.623 716.361 208.542 718.228 237.512C694.152 240.116 673.705 254.814 663.084 275.409ZM733.601 237.512C757.965 240.148 778.614 255.169 789.124 276.153C799.597 255.241 820.14 240.251 844.397 237.54C842.543 208.557 818.448 185.623 788.998 185.623C759.556 185.623 735.467 208.542 733.601 237.512ZM915.164 275.409C904.506 254.743 883.954 240.015 859.769 237.486C861.649 208.528 885.732 185.623 915.164 185.623C944.597 185.623 968.679 208.528 970.56 237.486C946.374 240.015 925.823 254.743 915.164 275.409Z" fill="#FFEAB7"/>
<path fill-rule="evenodd" clip-rule="evenodd" d="M978.5 -44.8043V-1.35547C978.584 -1.35584 978.668 -1.356 978.752 -1.356C1005.86 -1.356 1028.43 18.0724 1033.29 43.7589C1009.37 46.4675 989.071 61.123 978.5 81.615V125.064C978.584 125.063 978.668 125.063 978.752 125.063C1006.12 125.063 1028.86 144.866 1033.43 170.92C1009.45 173.588 989.091 188.26 978.5 208.791V252.24C978.584 252.239 978.668 252.239 978.752 252.239C1005.6 252.239 1027.99 271.295 1033.15 296.614C1022.09 297.889 1010.67 301.72 1001.77 307.5H1080.9C1072.13 301.806 1060.88 298.003 1050.01 296.672C1055.13 271.352 1077.5 252.279 1104.33 252.239H1104.5C1131.33 252.279 1153.69 271.352 1158.82 296.673C1147.95 298.003 1136.7 301.806 1127.93 307.5H1207.06C1198.36 301.849 1187.2 298.061 1176.42 296.703C1181.52 271.437 1203.79 252.385 1230.52 252.24L1230.64 252.239H1230.83H1230.84C1257.69 252.241 1280.09 271.312 1285.24 296.642C1274.27 297.947 1262.94 301.763 1254.1 307.5H1333.23C1324.39 301.763 1313.06 297.947 1302.09 296.642C1307.24 271.31 1329.64 252.239 1356.5 252.239H1356.63L1356.8 252.24C1356.87 252.241 1356.93 252.241 1357 252.241V208.791C1356.92 208.955 1356.83 209.12 1356.75 209.285C1346.27 188.566 1325.88 173.712 1301.81 170.948C1306.37 144.881 1329.12 125.063 1356.5 125.063H1356.63L1356.8 125.064C1356.87 125.065 1356.93 125.065 1357 125.065V81.615C1356.92 81.7793 1356.83 81.9435 1356.75 82.1086C1346.29 61.4288 1325.95 46.5909 1301.95 43.7877C1306.8 18.0875 1329.38 -1.356 1356.5 -1.356L1356.63 -1.35585L1356.8 -1.35516C1356.87 -1.35479 1356.93 -1.35433 1357 -1.35373V-44.8044C1356.92 -44.6401 1356.83 -44.4755 1356.75 -44.3104C1351.3 -55.0845 1343.17 -64.273 1333.23 -71H1254.09C1244.16 -64.273 1236.03 -55.0845 1230.58 -44.3104C1225.13 -55.0845 1217 -64.273 1207.07 -71H1127.93C1117.99 -64.273 1109.87 -55.0846 1104.41 -44.3107C1098.96 -55.0846 1090.83 -64.273 1080.9 -71H1001.76C991.98 -64.376 983.948 -55.3653 978.5 -44.8043ZM1041.69 58.4485L1041.55 58.4478L1041.46 58.447H1041.33C1011.91 58.447 987.83 81.3387 985.938 110.284C1010.23 112.738 1030.89 127.496 1041.58 148.232C1052.21 127.638 1072.65 112.94 1096.73 110.336C1094.87 81.4848 1070.97 58.634 1041.69 58.4485ZM1049.86 43.8165C1054.7 18.1292 1077.24 -1.31512 1104.33 -1.35592H1104.5C1131.59 -1.31512 1154.13 18.1284 1158.97 43.8165C1135.07 46.6931 1114.84 61.5 1104.41 82.1086C1093.99 61.5 1073.76 46.6931 1049.86 43.8165ZM1176.27 43.8467C1200.07 46.7953 1220.19 61.5712 1230.58 82.1086C1241.04 61.4288 1261.37 46.5909 1285.38 43.7877C1280.53 18.0883 1257.95 -1.35403 1230.84 -1.356H1230.83L1230.64 -1.35577L1230.52 -1.35516C1203.53 -1.20861 1181.09 18.214 1176.27 43.8467ZM1041.58 21.8135C1030.89 1.07693 1010.23 -13.6818 985.938 -16.1351C987.83 -45.0804 1011.91 -67.972 1041.33 -67.972C1070.77 -67.972 1094.86 -45.0528 1096.73 -16.0828C1072.65 -13.4784 1052.21 1.21947 1041.58 21.8135ZM1112.1 -16.0828C1136.47 -13.447 1157.11 1.57427 1167.62 22.5576C1178.1 1.64642 1198.64 -13.3436 1222.9 -16.0551C1221.04 -45.0382 1196.95 -67.972 1167.5 -67.972C1138.06 -67.972 1113.97 -45.0527 1112.1 -16.0828ZM1293.66 21.8143C1283.01 1.14824 1262.45 -13.5803 1238.27 -16.1095C1240.15 -45.0668 1264.23 -67.972 1293.66 -67.972C1323.1 -67.972 1347.18 -45.0668 1349.06 -16.1094C1324.87 -13.5803 1304.32 1.14824 1293.66 21.8143ZM1104.41 209.285C1093.97 188.637 1073.68 173.813 1049.73 170.977C1054.27 144.923 1076.98 125.105 1104.33 125.063H1104.5C1131.85 125.105 1154.56 144.922 1159.1 170.977C1135.14 173.813 1114.86 188.637 1104.41 209.285ZM1230.58 209.285C1220.17 188.709 1199.99 173.915 1176.14 171.006C1180.66 145.008 1203.27 125.212 1230.52 125.064L1230.64 125.063H1230.83H1230.84C1258.21 125.065 1280.96 144.883 1285.52 170.948C1261.45 173.712 1241.06 188.566 1230.58 209.285ZM1112.1 110.336C1136.47 112.972 1157.11 127.993 1167.62 148.977C1178.1 128.065 1198.64 113.075 1222.9 110.364C1221.04 81.3811 1196.95 58.447 1167.5 58.447C1138.06 58.447 1113.97 81.3659 1112.1 110.336ZM1293.66 148.233C1283.01 127.567 1262.45 112.839 1238.27 110.31C1240.15 81.3523 1264.23 58.447 1293.66 58.447C1323.1 58.447 1347.18 81.3523 1349.06 110.31C1324.87 112.839 1304.32 127.567 1293.66 148.233ZM1041.58 275.409C1030.89 254.672 1010.23 239.914 985.938 237.46C987.83 208.515 1011.91 185.623 1041.33 185.623C1070.77 185.623 1094.86 208.542 1096.73 237.512C1072.65 240.116 1052.21 254.814 1041.58 275.409ZM1112.1 237.512C1136.47 240.148 1157.11 255.169 1167.62 276.153C1178.1 255.241 1198.64 240.251 1222.9 237.54C1221.04 208.557 1196.95 185.623 1167.5 185.623C1138.06 185.623 1113.97 208.542 1112.1 237.512ZM1293.66 275.409C1283.01 254.743 1262.45 240.015 1238.27 237.486C1240.15 208.528 1264.23 185.623 1293.66 185.623C1323.1 185.623 1347.18 208.528 1349.06 237.486C1324.87 240.015 1304.32 254.743 1293.66 275.409Z" fill="#FFEAB7"/>
</g>
<defs>
<clipPath id="clip0_119_186">
<rect width="1200" height="236" fill="white"/>
</clipPath>
</defs>
</svg>
