<svg width="32" height="32" viewBox="0 0 32 32" fill="none" xmlns="http://www.w3.org/2000/svg">
<g clip-path="url(#clip0_443_3674)">
<path d="M10.1737 4.76089C10.4129 4.63043 10.667 4.83113 10.667 5.10357V23.3037C10.667 23.527 10.5162 23.7175 10.3134 23.8108C10.2653 23.8329 10.2189 23.8563 10.1737 23.8809L7.04038 25.6676C4.85371 26.9209 3.05371 25.8809 3.05371 23.3476V10.3742C3.05371 9.53422 3.65371 8.49422 4.40038 8.06755L10.1737 4.76089Z" fill="white"/>
<path d="M19.7219 8.18246C19.8922 8.26681 20 8.44045 20 8.63052V26.5368C20 26.9053 19.615 27.1472 19.283 26.9872L13.283 24.0965C13.11 24.0132 13 23.8381 13 23.6461V5.65909C13 5.28823 13.3896 5.04644 13.7219 5.21103L19.7219 8.18246Z" fill="white"/>
<path d="M29.333 8.65407V21.6274C29.333 22.4674 28.733 23.5074 27.9863 23.9341L23.0816 26.745C22.7483 26.9361 22.333 26.6954 22.333 26.3112V8.34439C22.333 8.16488 22.4292 7.99914 22.5851 7.91015L25.3463 6.33407C27.533 5.08074 29.333 6.12074 29.333 8.65407Z" fill="white"/>
</g>
<defs>
<clipPath id="clip0_443_3674">
<rect width="32" height="32" fill="white"/>
</clipPath>
</defs>
</svg>
