<svg width="32" height="32" viewBox="0 0 32 32" fill="none" xmlns="http://www.w3.org/2000/svg">
<path d="M22.667 4.66602H9.33366C5.33366 4.66602 2.66699 6.66602 2.66699 11.3327V20.666C2.66699 25.3327 5.33366 27.3327 9.33366 27.3327H22.667C26.667 27.3327 29.3337 25.3327 29.3337 20.666V11.3327C29.3337 6.66602 26.667 4.66602 22.667 4.66602ZM23.2937 12.786L19.1203 16.1193C18.2403 16.826 17.1203 17.1727 16.0003 17.1727C14.8803 17.1727 13.747 16.826 12.8803 16.1193L8.70699 12.786C8.28033 12.4393 8.21366 11.7993 8.54699 11.3727C8.89366 10.946 9.52033 10.866 9.94699 11.2127L14.1203 14.546C15.1337 15.3593 16.8537 15.3593 17.867 14.546L22.0403 11.2127C22.467 10.866 23.107 10.9327 23.4403 11.3727C23.787 11.7993 23.7203 12.4393 23.2937 12.786Z" fill="white"/>
</svg>
