<svg width="761" height="127" viewBox="0 0 761 127" fill="none" xmlns="http://www.w3.org/2000/svg">
<path d="M293.473 3.39062L294.035 4.04688C291.707 5.625 289.973 7.3125 288.832 9.10938C287.363 11.4219 286.629 13.9375 286.629 16.6562C286.629 19.9531 287.715 23 289.887 25.7969C290.824 25.0312 291.387 24.3906 291.574 23.875C291.762 23.3438 291.856 21.9062 291.856 19.5625V9.0625L301.887 0.695312C304.231 1.61719 306.074 2.21875 307.418 2.5C308.762 2.76562 310.34 2.89844 312.152 2.89844H312.692L313.067 3.74219L309.199 7.44531C306.59 7.16406 303.645 6.21094 300.363 4.58594L300.621 31.3516L301.512 31.375C303.762 31.375 305.809 30.9922 307.652 30.2266C309.512 29.4609 311.434 28.2188 313.418 26.5L314.121 27.1797C312.668 29.1797 311.238 30.7344 309.832 31.8438C308.442 32.9531 306.762 33.8438 304.793 34.5156C302.824 35.1719 300.871 35.5 298.934 35.5C296.059 35.5 293.348 34.8047 290.801 33.4141C288.27 32.0234 286.285 30.0312 284.848 27.4375C283.41 24.8438 282.692 22.1719 282.692 19.4219C282.692 16.0312 283.707 12.8906 285.738 10C287.332 7.73438 289.91 5.53125 293.473 3.39062ZM299.309 4.44531L296.567 6.8125V17.5C296.567 18.8281 296.496 19.7109 296.356 20.1484C296.199 20.7266 295.84 21.3438 295.277 22C294.137 23.3281 292.543 24.8438 290.496 26.5469C291.746 27.9375 293.082 29.0078 294.504 29.7578C295.942 30.4922 297.621 30.9844 299.543 31.2344L299.309 4.44531ZM324.88 1.91406L325.114 2.47656C324.005 3.19531 323.247 3.96094 322.841 4.77344C322.435 5.58594 322.232 6.875 322.232 8.64062V16.2812L329.474 10.5156C331.021 11.5156 332.028 12.4844 332.497 13.4219C332.966 14.3438 333.2 15.9219 333.2 18.1562V28.7734C333.2 30.8047 332.989 32.2891 332.568 33.2266C331.896 34.7578 330.653 36.1953 328.841 37.5391C326.466 39.3203 323.443 40.8594 319.771 42.1562L319.443 41.2891C322.427 40.0547 324.505 38.9297 325.677 37.9141C326.849 36.8984 327.614 35.8203 327.974 34.6797C328.239 33.8203 328.372 31.5859 328.372 27.9766V18.1562C328.372 17.0625 328.263 16.3047 328.044 15.8828C327.716 15.3047 327.114 14.7344 326.239 14.1719L322.232 17.4297V30.4844L323.896 32.1484L319.771 35.5L315.599 32.1484L317.45 30.2969V8.96875C317.45 7.03125 317.278 5.70312 316.935 4.98438C316.591 4.26562 315.911 3.61719 314.896 3.03906L315.153 2.47656C315.982 2.71094 316.646 2.97656 317.146 3.27344C317.646 3.55469 318.302 4.05469 319.114 4.77344C320.068 3.86719 320.982 3.20312 321.857 2.78125C322.732 2.35938 323.739 2.07031 324.88 1.91406ZM346.326 10.5156L352.936 18.2266L342.436 25.5859V29.8516L347.873 32.0078L351.553 29.5L352.068 30.2031L344.475 35.5C342.928 34.6719 341.654 34.0781 340.654 33.7188C339.654 33.3594 338.232 32.9844 336.389 32.5938V32.0078C336.92 31.6953 337.272 31.3125 337.443 30.8594C337.631 30.3906 337.725 29.3906 337.725 27.8594V14.4531C339.193 13.9219 340.412 13.4375 341.381 13C342.084 12.6719 343.732 11.8438 346.326 10.5156ZM342.764 13.2109L342.436 13.375V23.9922L348.6 19.6797L342.764 13.2109ZM361.819 10.5156L367.913 13.9844L365.429 17.6641L360.835 15.0156V29.9453L365.429 32.0312L367.913 30.2734L368.147 31.2578L362.335 35.5C360.835 34.6562 359.554 34.0391 358.491 33.6484C357.429 33.2422 356.124 32.8906 354.577 32.5938V32.0312C355.124 31.6562 355.483 31.25 355.655 30.8125C355.905 30.2031 356.03 29.25 356.03 27.9531V14.6172C357.983 13.7266 359.913 12.3594 361.819 10.5156ZM379.422 1.91406V2.52344C378.234 3.30469 377.438 4.13281 377.031 5.00781C376.625 5.86719 376.422 7.26562 376.422 9.20312V17.2891L383.406 10.5156L388.164 15.7656L382.727 20.5234C383.961 21.3984 384.883 22.3516 385.492 23.3828C386.117 24.3984 386.602 25.8984 386.945 27.8828C387.289 29.8516 387.562 30.9844 387.766 31.2812C387.969 31.5781 388.156 31.7266 388.328 31.7266C388.516 31.7266 389.031 31.4062 389.875 30.7656L390.32 31.5156L384.859 35.5C384.219 34.8438 383.742 34.1484 383.43 33.4141C383.117 32.6797 382.883 31.6094 382.727 30.2031L376.094 35.5C375.141 34.5938 374.219 33.8828 373.328 33.3672C372.453 32.8516 371.359 32.3828 370.047 31.9609V31.5156C370.766 31.0312 371.227 30.5312 371.43 30.0156C371.633 29.4844 371.734 28.1641 371.734 26.0547V9.01562C371.734 7.67188 371.672 6.73438 371.547 6.20312C371.375 5.42188 371.117 4.82031 370.773 4.39844C370.445 3.96094 369.906 3.5625 369.156 3.20312L369.508 2.52344C370.445 2.86719 371.148 3.1875 371.617 3.48438C372.102 3.76562 372.695 4.23438 373.398 4.89062C374.414 3.92188 375.375 3.21875 376.281 2.78125C377.203 2.32813 378.25 2.03906 379.422 1.91406ZM380.664 14.3828L376.422 18.4844V24.7422L384.133 18.1562L380.664 14.3828ZM376.422 25.9609V30.0156L379.188 31.9375L382.609 29.125C382.203 26.5 381.062 24.6328 379.188 23.5234L376.422 25.9609ZM422.314 0.460938C425.033 0.742188 427.158 1.13281 428.689 1.63281C431.002 2.36719 433.025 3.41406 434.76 4.77344C436.51 6.11719 437.869 7.71094 438.838 9.55469C439.822 11.3984 440.314 13.3984 440.314 15.5547C440.314 17.5547 439.799 19.5234 438.767 21.4609C437.736 23.3984 435.963 25.5781 433.447 28C430.947 30.4219 428.424 32.2812 425.877 33.5781C423.33 34.8594 420.838 35.5 418.4 35.5C415.791 35.5 413.267 34.8516 410.83 33.5547C408.392 32.2578 406.51 30.4766 405.182 28.2109C403.853 25.9297 403.189 23.4141 403.189 20.6641C403.189 19.0859 403.353 17.5703 403.682 16.1172C404.01 14.6484 404.58 12.9531 405.392 11.0312C406.939 10.2656 408.752 9.21094 410.83 7.86719C411.939 7.13281 414.744 5.35156 419.244 2.52344C420.15 1.96094 421.174 1.27344 422.314 0.460938ZM420.533 5.125C419.471 5.0625 418.424 5.01562 417.392 4.98438V18.8359C417.392 20.3359 417.291 21.3828 417.088 21.9766C416.885 22.5703 416.51 23.1875 415.963 23.8281L411.627 28C413.096 29.25 414.478 30.1406 415.775 30.6719C417.088 31.1875 418.674 31.5078 420.533 31.6328V5.125ZM421.541 11.3828C422.666 12.3516 423.728 13.0547 424.728 13.4922C425.744 13.9141 426.846 14.125 428.033 14.125C429.127 14.125 430.135 13.9141 431.057 13.4922C431.994 13.0547 432.978 12.3516 434.01 11.3828C433.119 10.2266 432.291 9.36719 431.525 8.80469C430.119 7.78906 428.603 6.99219 426.978 6.41406C425.369 5.83594 423.557 5.42969 421.541 5.19531V11.3828ZM412.588 8.05469C411.26 9.03906 410.307 9.86719 409.728 10.5391C408.963 11.4297 408.322 12.5156 407.807 13.7969C407.291 15.0781 407.033 16.4844 407.033 18.0156C407.033 21.3281 408.307 24.4141 410.853 27.2734C411.572 26.6016 412.041 25.9375 412.26 25.2812C412.478 24.6094 412.588 23.3047 412.588 21.3672V8.05469ZM421.541 21.1562C422.65 20.0625 423.682 19.2969 424.635 18.8594C425.603 18.4219 426.721 18.2031 427.986 18.2031C429.314 18.2031 430.51 18.4375 431.572 18.9062C432.635 19.375 433.775 20.1875 434.994 21.3438C435.416 19.7969 435.627 18.4531 435.627 17.3125C435.627 16.2656 435.549 15.3516 435.392 14.5703C435.267 13.9922 435.01 13.2734 434.619 12.4141C433.26 13.5078 432.08 14.2578 431.08 14.6641C430.08 15.0547 428.971 15.25 427.752 15.25C426.642 15.25 425.627 15.0703 424.705 14.7109C423.783 14.3359 422.728 13.6719 421.541 12.7188V21.1562ZM421.541 31.6328C423.51 31.5234 425.111 31.2031 426.346 30.6719C428.221 29.875 429.846 28.7812 431.221 27.3906C432.596 25.9844 433.728 24.2891 434.619 22.3047C432.463 20.2734 430.26 19.2578 428.01 19.2578C426.697 19.2578 425.447 19.6094 424.26 20.3125C423.385 20.8125 422.478 21.6562 421.541 22.8438V31.6328ZM458.972 10.5156L463.167 13.9844L461.268 15.7188V28.0234C461.268 29.4453 461.464 30.4609 461.854 31.0703C462.104 31.4922 462.378 31.7031 462.675 31.7031C462.893 31.7031 463.315 31.4453 463.94 30.9297L464.55 31.6797L459.604 35.5C458.354 34.625 457.534 33.8438 457.143 33.1562C456.768 32.4531 456.565 31.3438 456.534 29.8281C454.112 31.3906 451.643 33.2812 449.128 35.5C447.612 34.3125 446.62 33.2734 446.151 32.3828C445.682 31.4766 445.448 30.2891 445.448 28.8203V17.2422C445.448 16.4297 445.386 15.8984 445.261 15.6484C445.042 15.2109 444.745 14.9922 444.37 14.9922C444.089 14.9922 443.667 15.2344 443.104 15.7188L442.472 15.0625L447.675 10.5156L451.917 13.9844L450.182 15.5781V28.0234C450.182 28.9453 450.3 29.625 450.534 30.0625C450.768 30.4844 451.339 31.0234 452.245 31.6797L456.534 28.5156V15.7188L454.87 13.9844L458.972 10.5156ZM465.605 13.0938L472.144 5.00781H472.824L472.59 11.4766H477.301V14.125H472.59V29.8984L475.215 31.8438L476.715 30.6719L477.301 31.375L472.144 35.5C470.379 33.7031 468.379 32.4844 466.144 31.8438V31.375C466.769 30.9531 467.183 30.5156 467.387 30.0625C467.652 29.4844 467.785 28.6484 467.785 27.5547V14.125H465.605V13.0938Z" fill="#FBB714"/>
<path d="M39.3275 88.75V90.7812C39.3275 94.2396 38.8483 97.3438 37.89 100.094C36.9525 102.844 35.6088 105.188 33.8588 107.125C32.1296 109.062 30.0671 110.552 27.6713 111.594C25.2963 112.615 22.6608 113.125 19.765 113.125C16.8692 113.125 14.2233 112.615 11.8275 111.594C9.43168 110.552 7.34835 109.062 5.57751 107.125C3.82751 105.188 2.47335 102.844 1.51501 100.094C0.556681 97.3438 0.0775146 94.2396 0.0775146 90.7812V88.75C0.0775146 85.2917 0.556681 82.1875 1.51501 79.4375C2.47335 76.6667 3.8171 74.3125 5.54626 72.375C7.29626 70.4375 9.36918 68.9583 11.765 67.9375C14.1608 66.8958 16.8067 66.375 19.7025 66.375C22.5983 66.375 25.2442 66.8958 27.64 67.9375C30.0358 68.9583 32.0983 70.4375 33.8275 72.375C35.5775 74.3125 36.9317 76.6667 37.89 79.4375C38.8483 82.1875 39.3275 85.2917 39.3275 88.75ZM29.0463 90.7812V88.6875C29.0463 86.375 28.8379 84.3333 28.4213 82.5625C28.0046 80.7708 27.4004 79.2708 26.6088 78.0625C25.8171 76.8542 24.8379 75.9479 23.6713 75.3438C22.5046 74.7188 21.1817 74.4062 19.7025 74.4062C18.1608 74.4062 16.8171 74.7188 15.6713 75.3438C14.5254 75.9479 13.5567 76.8542 12.765 78.0625C11.9942 79.2708 11.4004 80.7708 10.9838 82.5625C10.5879 84.3333 10.39 86.375 10.39 88.6875V90.7812C10.39 93.0729 10.5879 95.1146 10.9838 96.9062C11.4004 98.6771 12.0046 100.177 12.7963 101.406C13.5879 102.635 14.5567 103.562 15.7025 104.188C16.8692 104.812 18.2233 105.125 19.765 105.125C21.2442 105.125 22.5567 104.812 23.7025 104.188C24.8692 103.562 25.8483 102.635 26.64 101.406C27.4317 100.177 28.0254 98.6771 28.4213 96.9062C28.8379 95.1146 29.0463 93.0729 29.0463 90.7812ZM54.0788 64.5V112.5H44.2975V64.5H54.0788ZM77.7363 104.438V89.9375C77.7363 88.9167 77.58 88.0417 77.2675 87.3125C76.955 86.5833 76.4654 86.0104 75.7988 85.5938C75.1321 85.1771 74.2675 84.9688 73.205 84.9688C72.3092 84.9688 71.5279 85.125 70.8613 85.4375C70.2154 85.75 69.7154 86.1979 69.3613 86.7812C69.0279 87.3646 68.8613 88.0833 68.8613 88.9375H59.1113C59.1113 87.4167 59.455 86 60.1425 84.6875C60.83 83.375 61.8092 82.2188 63.08 81.2188C64.3717 80.2188 65.9134 79.4479 67.705 78.9062C69.4967 78.3438 71.5071 78.0625 73.7363 78.0625C76.3821 78.0625 78.7363 78.5104 80.7988 79.4062C82.8821 80.2812 84.5279 81.6042 85.7363 83.375C86.9446 85.125 87.5488 87.3333 87.5488 90V104.156C87.5488 106.198 87.6634 107.802 87.8925 108.969C88.1425 110.115 88.4967 111.115 88.955 111.969V112.5H79.1113C78.6529 111.521 78.3092 110.312 78.08 108.875C77.8509 107.417 77.7363 105.938 77.7363 104.438ZM78.955 91.875L79.0175 97.25H74.1738C73.0904 97.25 72.1529 97.3854 71.3613 97.6562C70.5904 97.9271 69.9654 98.3021 69.4863 98.7812C69.0071 99.2396 68.6529 99.7812 68.4238 100.406C68.2154 101.01 68.1113 101.677 68.1113 102.406C68.1113 103.094 68.2779 103.719 68.6113 104.281C68.9446 104.823 69.4029 105.25 69.9863 105.562C70.5696 105.875 71.2467 106.031 72.0175 106.031C73.2884 106.031 74.3717 105.781 75.2675 105.281C76.1842 104.781 76.8925 104.177 77.3925 103.469C77.8925 102.74 78.1425 102.062 78.1425 101.438L80.4863 105.5C80.1113 106.333 79.6529 107.198 79.1113 108.094C78.5696 108.969 77.8821 109.792 77.0488 110.562C76.2154 111.312 75.205 111.927 74.0175 112.406C72.8509 112.885 71.4446 113.125 69.7988 113.125C67.6738 113.125 65.7467 112.698 64.0175 111.844C62.2884 110.969 60.9029 109.771 59.8613 108.25C58.8404 106.729 58.33 104.979 58.33 103C58.33 101.229 58.6529 99.6562 59.2988 98.2812C59.9446 96.9062 60.9134 95.7396 62.205 94.7812C63.5175 93.8229 65.1634 93.1042 67.1425 92.625C69.1217 92.125 71.4342 91.875 74.08 91.875H78.955ZM92.7063 64.5H102.456V104.469L101.456 112.5H92.7063V64.5ZM123.55 95.2188V95.875C123.55 98.4375 123.279 100.771 122.738 102.875C122.217 104.979 121.415 106.802 120.331 108.344C119.248 109.865 117.883 111.042 116.238 111.875C114.592 112.708 112.654 113.125 110.425 113.125C108.363 113.125 106.592 112.698 105.113 111.844C103.633 110.969 102.394 109.76 101.394 108.219C100.394 106.677 99.5813 104.875 98.9563 102.812C98.3521 100.75 97.8834 98.5312 97.55 96.1562V95.0312C97.8834 92.6562 98.3521 90.4375 98.9563 88.375C99.5813 86.3125 100.394 84.5104 101.394 82.9688C102.394 81.4271 103.623 80.2292 105.081 79.375C106.56 78.5 108.321 78.0625 110.363 78.0625C112.613 78.0625 114.56 78.4896 116.206 79.3438C117.873 80.1979 119.248 81.3958 120.331 82.9375C121.415 84.4583 122.217 86.2708 122.738 88.375C123.279 90.4583 123.55 92.7396 123.55 95.2188ZM113.8 95.875V95.2188C113.8 93.9271 113.706 92.7083 113.519 91.5625C113.352 90.4167 113.05 89.4062 112.613 88.5312C112.196 87.6354 111.602 86.9375 110.831 86.4375C110.081 85.9167 109.113 85.6562 107.925 85.6562C106.758 85.6562 105.769 85.8542 104.956 86.25C104.144 86.6458 103.488 87.2083 102.988 87.9375C102.488 88.6458 102.123 89.5104 101.894 90.5312C101.665 91.5521 101.54 92.6875 101.519 93.9375V97.25C101.54 98.9167 101.758 100.375 102.175 101.625C102.592 102.875 103.269 103.844 104.206 104.531C105.144 105.198 106.404 105.531 107.988 105.531C109.196 105.531 110.175 105.302 110.925 104.844C111.696 104.365 112.279 103.698 112.675 102.844C113.092 101.99 113.383 100.969 113.55 99.7812C113.717 98.5938 113.8 97.2917 113.8 95.875ZM137.739 78.6875V112.5H127.958V78.6875H137.739ZM127.364 69.9375C127.364 68.5208 127.864 67.3646 128.864 66.4688C129.864 65.5521 131.176 65.0938 132.801 65.0938C134.426 65.0938 135.739 65.5521 136.739 66.4688C137.76 67.3646 138.27 68.5208 138.27 69.9375C138.27 71.3333 137.76 72.4896 136.739 73.4062C135.739 74.3021 134.426 74.75 132.801 74.75C131.176 74.75 129.864 74.3021 128.864 73.4062C127.864 72.4896 127.364 71.3333 127.364 69.9375ZM161.49 103.094C161.49 102.469 161.292 101.917 160.896 101.438C160.521 100.958 159.834 100.521 158.834 100.125C157.855 99.7292 156.469 99.3333 154.678 98.9375C152.99 98.5833 151.417 98.125 149.959 97.5625C148.5 96.9792 147.23 96.2812 146.146 95.4688C145.063 94.6354 144.219 93.6562 143.615 92.5312C143.011 91.3854 142.709 90.0833 142.709 88.625C142.709 87.2083 143.011 85.8646 143.615 84.5938C144.24 83.3229 145.136 82.1979 146.303 81.2188C147.49 80.2396 148.928 79.4688 150.615 78.9062C152.323 78.3438 154.261 78.0625 156.428 78.0625C159.407 78.0625 161.98 78.5312 164.146 79.4688C166.313 80.3854 167.98 81.6771 169.146 83.3438C170.313 84.9896 170.896 86.875 170.896 89H161.146C161.146 88.125 160.98 87.3646 160.646 86.7188C160.313 86.0729 159.803 85.5729 159.115 85.2188C158.428 84.8438 157.521 84.6562 156.396 84.6562C155.521 84.6562 154.75 84.8125 154.084 85.125C153.438 85.4167 152.928 85.8229 152.553 86.3438C152.198 86.8646 152.021 87.4688 152.021 88.1562C152.021 88.6354 152.125 89.0729 152.334 89.4688C152.563 89.8438 152.907 90.1979 153.365 90.5312C153.844 90.8438 154.459 91.125 155.209 91.375C155.98 91.625 156.917 91.8646 158.021 92.0938C160.375 92.5312 162.521 93.1458 164.459 93.9375C166.417 94.7292 167.98 95.8229 169.146 97.2188C170.334 98.6146 170.928 100.458 170.928 102.75C170.928 104.25 170.584 105.625 169.896 106.875C169.23 108.125 168.261 109.219 166.99 110.156C165.719 111.094 164.198 111.823 162.428 112.344C160.657 112.865 158.657 113.125 156.428 113.125C153.24 113.125 150.542 112.552 148.334 111.406C146.125 110.26 144.459 108.823 143.334 107.094C142.23 105.344 141.678 103.552 141.678 101.719H150.834C150.875 102.844 151.157 103.76 151.678 104.469C152.219 105.177 152.917 105.698 153.771 106.031C154.625 106.344 155.584 106.5 156.646 106.5C157.709 106.5 158.594 106.354 159.303 106.062C160.011 105.771 160.553 105.375 160.928 104.875C161.303 104.354 161.49 103.76 161.49 103.094ZM185.366 78.6875V112.5H175.585V78.6875H185.366ZM174.991 69.9375C174.991 68.5208 175.491 67.3646 176.491 66.4688C177.491 65.5521 178.804 65.0938 180.429 65.0938C182.054 65.0938 183.366 65.5521 184.366 66.4688C185.387 67.3646 185.898 68.5208 185.898 69.9375C185.898 71.3333 185.387 72.4896 184.366 73.4062C183.366 74.3021 182.054 74.75 180.429 74.75C178.804 74.75 177.491 74.3021 176.491 73.4062C175.491 72.4896 174.991 71.3333 174.991 69.9375ZM244.213 88.75V90.7812C244.213 94.2396 243.733 97.3438 242.775 100.094C241.838 102.844 240.494 105.188 238.744 107.125C237.015 109.062 234.952 110.552 232.556 111.594C230.181 112.615 227.546 113.125 224.65 113.125C221.754 113.125 219.108 112.615 216.713 111.594C214.317 110.552 212.233 109.062 210.463 107.125C208.713 105.188 207.358 102.844 206.4 100.094C205.442 97.3438 204.963 94.2396 204.963 90.7812V88.75C204.963 85.2917 205.442 82.1875 206.4 79.4375C207.358 76.6667 208.702 74.3125 210.431 72.375C212.181 70.4375 214.254 68.9583 216.65 67.9375C219.046 66.8958 221.692 66.375 224.588 66.375C227.483 66.375 230.129 66.8958 232.525 67.9375C234.921 68.9583 236.983 70.4375 238.713 72.375C240.463 74.3125 241.817 76.6667 242.775 79.4375C243.733 82.1875 244.213 85.2917 244.213 88.75ZM233.931 90.7812V88.6875C233.931 86.375 233.723 84.3333 233.306 82.5625C232.89 80.7708 232.285 79.2708 231.494 78.0625C230.702 76.8542 229.723 75.9479 228.556 75.3438C227.39 74.7188 226.067 74.4062 224.588 74.4062C223.046 74.4062 221.702 74.7188 220.556 75.3438C219.41 75.9479 218.442 76.8542 217.65 78.0625C216.879 79.2708 216.285 80.7708 215.869 82.5625C215.473 84.3333 215.275 86.375 215.275 88.6875V90.7812C215.275 93.0729 215.473 95.1146 215.869 96.9062C216.285 98.6771 216.89 100.177 217.681 101.406C218.473 102.635 219.442 103.562 220.588 104.188C221.754 104.812 223.108 105.125 224.65 105.125C226.129 105.125 227.442 104.812 228.588 104.188C229.754 103.562 230.733 102.635 231.525 101.406C232.317 100.177 232.91 98.6771 233.306 96.9062C233.723 95.1146 233.931 93.0729 233.931 90.7812ZM258.245 85.9062V112.5H248.464V78.6875H257.651L258.245 85.9062ZM256.964 94.4062L254.526 94.4688C254.526 91.9271 254.839 89.6458 255.464 87.625C256.089 85.6042 256.974 83.8854 258.12 82.4688C259.287 81.0312 260.672 79.9375 262.276 79.1875C263.901 78.4375 265.693 78.0625 267.651 78.0625C269.235 78.0625 270.682 78.2917 271.995 78.75C273.307 79.2083 274.432 79.9479 275.37 80.9688C276.328 81.9688 277.057 83.3021 277.557 84.9688C278.057 86.6146 278.307 88.6458 278.307 91.0625V112.5H268.495V91.0312C268.495 89.6146 268.297 88.5208 267.901 87.75C267.505 86.9792 266.922 86.4375 266.151 86.125C265.401 85.8125 264.485 85.6562 263.401 85.6562C262.255 85.6562 261.276 85.8854 260.464 86.3438C259.651 86.7812 258.985 87.3958 258.464 88.1875C257.943 88.9792 257.557 89.9062 257.307 90.9688C257.078 92.0312 256.964 93.1771 256.964 94.4062ZM301.309 104.438V89.9375C301.309 88.9167 301.153 88.0417 300.84 87.3125C300.528 86.5833 300.038 86.0104 299.371 85.5938C298.705 85.1771 297.84 84.9688 296.778 84.9688C295.882 84.9688 295.1 85.125 294.434 85.4375C293.788 85.75 293.288 86.1979 292.934 86.7812C292.6 87.3646 292.434 88.0833 292.434 88.9375H282.684C282.684 87.4167 283.028 86 283.715 84.6875C284.403 83.375 285.382 82.2188 286.653 81.2188C287.944 80.2188 289.486 79.4479 291.278 78.9062C293.069 78.3438 295.08 78.0625 297.309 78.0625C299.955 78.0625 302.309 78.5104 304.371 79.4062C306.455 80.2812 308.1 81.6042 309.309 83.375C310.517 85.125 311.121 87.3333 311.121 90V104.156C311.121 106.198 311.236 107.802 311.465 108.969C311.715 110.115 312.069 111.115 312.528 111.969V112.5H302.684C302.225 111.521 301.882 110.312 301.653 108.875C301.423 107.417 301.309 105.938 301.309 104.438ZM302.528 91.875L302.59 97.25H297.746C296.663 97.25 295.725 97.3854 294.934 97.6562C294.163 97.9271 293.538 98.3021 293.059 98.7812C292.58 99.2396 292.225 99.7812 291.996 100.406C291.788 101.01 291.684 101.677 291.684 102.406C291.684 103.094 291.85 103.719 292.184 104.281C292.517 104.823 292.975 105.25 293.559 105.562C294.142 105.875 294.819 106.031 295.59 106.031C296.861 106.031 297.944 105.781 298.84 105.281C299.757 104.781 300.465 104.177 300.965 103.469C301.465 102.74 301.715 102.062 301.715 101.438L304.059 105.5C303.684 106.333 303.225 107.198 302.684 108.094C302.142 108.969 301.455 109.792 300.621 110.562C299.788 111.312 298.778 111.927 297.59 112.406C296.423 112.885 295.017 113.125 293.371 113.125C291.246 113.125 289.319 112.698 287.59 111.844C285.861 110.969 284.475 109.771 283.434 108.25C282.413 106.729 281.903 104.979 281.903 103C281.903 101.229 282.225 99.6562 282.871 98.2812C283.517 96.9062 284.486 95.7396 285.778 94.7812C287.09 93.8229 288.736 93.1042 290.715 92.625C292.694 92.125 295.007 91.875 297.653 91.875H302.528ZM316.279 64.5H326.029V104.469L325.029 112.5H316.279V64.5ZM347.123 95.2188V95.875C347.123 98.4375 346.852 100.771 346.31 102.875C345.789 104.979 344.987 106.802 343.904 108.344C342.82 109.865 341.456 111.042 339.81 111.875C338.164 112.708 336.227 113.125 333.998 113.125C331.935 113.125 330.164 112.698 328.685 111.844C327.206 110.969 325.966 109.76 324.966 108.219C323.966 106.677 323.154 104.875 322.529 102.812C321.925 100.75 321.456 98.5312 321.123 96.1562V95.0312C321.456 92.6562 321.925 90.4375 322.529 88.375C323.154 86.3125 323.966 84.5104 324.966 82.9688C325.966 81.4271 327.195 80.2292 328.654 79.375C330.133 78.5 331.893 78.0625 333.935 78.0625C336.185 78.0625 338.133 78.4896 339.779 79.3438C341.445 80.1979 342.82 81.3958 343.904 82.9375C344.987 84.4583 345.789 86.2708 346.31 88.375C346.852 90.4583 347.123 92.7396 347.123 95.2188ZM337.373 95.875V95.2188C337.373 93.9271 337.279 92.7083 337.091 91.5625C336.925 90.4167 336.623 89.4062 336.185 88.5312C335.768 87.6354 335.175 86.9375 334.404 86.4375C333.654 85.9167 332.685 85.6562 331.498 85.6562C330.331 85.6562 329.341 85.8542 328.529 86.25C327.716 86.6458 327.06 87.2083 326.56 87.9375C326.06 88.6458 325.695 89.5104 325.466 90.5312C325.237 91.5521 325.112 92.6875 325.091 93.9375V97.25C325.112 98.9167 325.331 100.375 325.748 101.625C326.164 102.875 326.841 103.844 327.779 104.531C328.716 105.198 329.977 105.531 331.56 105.531C332.768 105.531 333.748 105.302 334.498 104.844C335.268 104.365 335.852 103.698 336.248 102.844C336.664 101.99 336.956 100.969 337.123 99.7812C337.289 98.5938 337.373 97.2917 337.373 95.875ZM368.936 104.438V89.9375C368.936 88.9167 368.78 88.0417 368.468 87.3125C368.155 86.5833 367.665 86.0104 366.999 85.5938C366.332 85.1771 365.468 84.9688 364.405 84.9688C363.509 84.9688 362.728 85.125 362.061 85.4375C361.415 85.75 360.915 86.1979 360.561 86.7812C360.228 87.3646 360.061 88.0833 360.061 88.9375H350.311C350.311 87.4167 350.655 86 351.343 84.6875C352.03 83.375 353.009 82.2188 354.28 81.2188C355.572 80.2188 357.113 79.4479 358.905 78.9062C360.697 78.3438 362.707 78.0625 364.936 78.0625C367.582 78.0625 369.936 78.5104 371.999 79.4062C374.082 80.2812 375.728 81.6042 376.936 83.375C378.145 85.125 378.749 87.3333 378.749 90V104.156C378.749 106.198 378.863 107.802 379.093 108.969C379.343 110.115 379.697 111.115 380.155 111.969V112.5H370.311C369.853 111.521 369.509 110.312 369.28 108.875C369.051 107.417 368.936 105.938 368.936 104.438ZM370.155 91.875L370.218 97.25H365.374C364.29 97.25 363.353 97.3854 362.561 97.6562C361.79 97.9271 361.165 98.3021 360.686 98.7812C360.207 99.2396 359.853 99.7812 359.624 100.406C359.415 101.01 359.311 101.677 359.311 102.406C359.311 103.094 359.478 103.719 359.811 104.281C360.145 104.823 360.603 105.25 361.186 105.562C361.77 105.875 362.447 106.031 363.218 106.031C364.488 106.031 365.572 105.781 366.468 105.281C367.384 104.781 368.093 104.177 368.593 103.469C369.093 102.74 369.343 102.062 369.343 101.438L371.686 105.5C371.311 106.333 370.853 107.198 370.311 108.094C369.77 108.969 369.082 109.792 368.249 110.562C367.415 111.312 366.405 111.927 365.218 112.406C364.051 112.885 362.645 113.125 360.999 113.125C358.874 113.125 356.947 112.698 355.218 111.844C353.488 110.969 352.103 109.771 351.061 108.25C350.04 106.729 349.53 104.979 349.53 103C349.53 101.229 349.853 99.6562 350.499 98.2812C351.145 96.9062 352.113 95.7396 353.405 94.7812C354.718 93.8229 356.363 93.1042 358.343 92.625C360.322 92.125 362.634 91.875 365.28 91.875H370.155ZM393.438 85.9062V112.5H383.656V78.6875H392.844L393.438 85.9062ZM392.156 94.4062L389.719 94.4688C389.719 91.9271 390.031 89.6458 390.656 87.625C391.281 85.6042 392.167 83.8854 393.312 82.4688C394.479 81.0312 395.865 79.9375 397.469 79.1875C399.094 78.4375 400.885 78.0625 402.844 78.0625C404.427 78.0625 405.875 78.2917 407.188 78.75C408.5 79.2083 409.625 79.9479 410.562 80.9688C411.521 81.9688 412.25 83.3021 412.75 84.9688C413.25 86.6146 413.5 88.6458 413.5 91.0625V112.5H403.688V91.0312C403.688 89.6146 403.49 88.5208 403.094 87.75C402.698 86.9792 402.115 86.4375 401.344 86.125C400.594 85.8125 399.677 85.6562 398.594 85.6562C397.448 85.6562 396.469 85.8854 395.656 86.3438C394.844 86.7812 394.177 87.3958 393.656 88.1875C393.135 88.9792 392.75 89.9062 392.5 90.9688C392.271 92.0312 392.156 93.1771 392.156 94.4062ZM419.22 78.6875H429.033V114.062C429.033 116.667 428.543 118.865 427.564 120.656C426.585 122.469 425.168 123.833 423.314 124.75C421.48 125.688 419.283 126.156 416.72 126.156C415.887 126.156 415.095 126.115 414.345 126.031C413.595 125.969 412.793 125.833 411.939 125.625V118.188C412.46 118.271 412.96 118.333 413.439 118.375C413.897 118.438 414.387 118.469 414.908 118.469C415.845 118.469 416.626 118.312 417.251 118C417.897 117.688 418.387 117.198 418.72 116.531C419.053 115.885 419.22 115.062 419.22 114.062V78.6875ZM418.47 69.9375C418.47 68.5208 418.97 67.3646 419.97 66.4688C420.97 65.5521 422.293 65.0938 423.939 65.0938C425.564 65.0938 426.876 65.5521 427.876 66.4688C428.876 67.3646 429.376 68.5208 429.376 69.9375C429.376 71.3333 428.876 72.4896 427.876 73.4062C426.876 74.3021 425.564 74.75 423.939 74.75C422.293 74.75 420.97 74.3021 419.97 73.4062C418.97 72.4896 418.47 71.3333 418.47 69.9375ZM432.909 95.9375V95.2812C432.909 92.8021 433.263 90.5208 433.971 88.4375C434.68 86.3333 435.721 84.5104 437.096 82.9688C438.471 81.4271 440.159 80.2292 442.159 79.375C444.159 78.5 446.45 78.0625 449.034 78.0625C451.659 78.0625 453.971 78.5 455.971 79.375C457.992 80.2292 459.69 81.4271 461.065 82.9688C462.44 84.5104 463.482 86.3333 464.19 88.4375C464.898 90.5208 465.253 92.8021 465.253 95.2812V95.9375C465.253 98.3958 464.898 100.677 464.19 102.781C463.482 104.865 462.44 106.688 461.065 108.25C459.69 109.792 458.003 110.99 456.003 111.844C454.003 112.698 451.7 113.125 449.096 113.125C446.513 113.125 444.211 112.698 442.19 111.844C440.169 110.99 438.471 109.792 437.096 108.25C435.721 106.688 434.68 104.865 433.971 102.781C433.263 100.677 432.909 98.3958 432.909 95.9375ZM442.69 95.2812V95.9375C442.69 97.2708 442.794 98.5208 443.003 99.6875C443.232 100.854 443.596 101.875 444.096 102.75C444.596 103.625 445.253 104.312 446.065 104.812C446.898 105.292 447.909 105.531 449.096 105.531C450.284 105.531 451.284 105.292 452.096 104.812C452.909 104.312 453.565 103.625 454.065 102.75C454.565 101.875 454.919 100.854 455.128 99.6875C455.357 98.5208 455.471 97.2708 455.471 95.9375V95.2812C455.471 93.9688 455.357 92.7396 455.128 91.5938C454.919 90.4271 454.565 89.3958 454.065 88.5C453.565 87.6042 452.898 86.9062 452.065 86.4062C451.253 85.9062 450.242 85.6562 449.034 85.6562C447.867 85.6562 446.878 85.9062 446.065 86.4062C445.253 86.9062 444.596 87.6042 444.096 88.5C443.596 89.3958 443.232 90.4271 443.003 91.5938C442.794 92.7396 442.69 93.9688 442.69 95.2812ZM509.161 67H519.349V96.875C519.349 100.417 518.599 103.396 517.099 105.812C515.62 108.229 513.557 110.052 510.911 111.281C508.265 112.51 505.203 113.125 501.724 113.125C498.224 113.125 495.14 112.51 492.474 111.281C489.828 110.052 487.745 108.229 486.224 105.812C484.724 103.396 483.974 100.417 483.974 96.875V67H494.193V96.875C494.193 98.8333 494.484 100.438 495.068 101.688C495.672 102.917 496.536 103.823 497.661 104.406C498.786 104.969 500.14 105.25 501.724 105.25C503.307 105.25 504.651 104.969 505.755 104.406C506.88 103.823 507.724 102.917 508.286 101.688C508.87 100.438 509.161 98.8333 509.161 96.875V67ZM534.413 85.9062V112.5H524.631V78.6875H533.819L534.413 85.9062ZM533.131 94.4062L530.694 94.4688C530.694 91.9271 531.006 89.6458 531.631 87.625C532.256 85.6042 533.142 83.8854 534.288 82.4688C535.454 81.0312 536.84 79.9375 538.444 79.1875C540.069 78.4375 541.86 78.0625 543.819 78.0625C545.402 78.0625 546.85 78.2917 548.163 78.75C549.475 79.2083 550.6 79.9479 551.538 80.9688C552.496 81.9688 553.225 83.3021 553.725 84.9688C554.225 86.6146 554.475 88.6458 554.475 91.0625V112.5H544.663V91.0312C544.663 89.6146 544.465 88.5208 544.069 87.75C543.673 86.9792 543.09 86.4375 542.319 86.125C541.569 85.8125 540.652 85.6562 539.569 85.6562C538.423 85.6562 537.444 85.8854 536.631 86.3438C535.819 86.7812 535.152 87.3958 534.631 88.1875C534.11 88.9792 533.725 89.9062 533.475 90.9688C533.246 92.0312 533.131 93.1771 533.131 94.4062ZM569.851 78.6875V112.5H560.07V78.6875H569.851ZM559.476 69.9375C559.476 68.5208 559.976 67.3646 560.976 66.4688C561.976 65.5521 563.289 65.0938 564.914 65.0938C566.539 65.0938 567.851 65.5521 568.851 66.4688C569.872 67.3646 570.383 68.5208 570.383 69.9375C570.383 71.3333 569.872 72.4896 568.851 73.4062C567.851 74.3021 566.539 74.75 564.914 74.75C563.289 74.75 561.976 74.3021 560.976 73.4062C559.976 72.4896 559.476 71.3333 559.476 69.9375ZM587.446 105.594L594.509 78.6875H604.759L593.54 112.5H587.384L587.446 105.594ZM582.884 78.6875L589.915 105.625L589.978 112.5H583.821L572.603 78.6875H582.884ZM622.573 113.125C619.885 113.125 617.479 112.698 615.354 111.844C613.229 110.99 611.427 109.812 609.948 108.312C608.489 106.792 607.375 105.042 606.604 103.062C605.833 101.083 605.448 98.9688 605.448 96.7188V95.5312C605.448 93.0104 605.802 90.6875 606.51 88.5625C607.218 86.4375 608.25 84.5938 609.604 83.0312C610.979 81.4479 612.666 80.2292 614.666 79.375C616.666 78.5 618.948 78.0625 621.51 78.0625C623.906 78.0625 626.041 78.4583 627.916 79.25C629.791 80.0208 631.375 81.1354 632.666 82.5938C633.958 84.0312 634.937 85.7708 635.604 87.8125C636.291 89.8333 636.635 92.1042 636.635 94.625V98.625H609.385V92.3438H627.073V91.5938C627.073 90.4062 626.854 89.3646 626.416 88.4688C626 87.5729 625.375 86.8854 624.541 86.4062C623.729 85.9062 622.698 85.6562 621.448 85.6562C620.26 85.6562 619.27 85.9062 618.479 86.4062C617.687 86.9062 617.052 87.6146 616.573 88.5312C616.114 89.4271 615.781 90.4792 615.573 91.6875C615.364 92.875 615.26 94.1562 615.26 95.5312V96.7188C615.26 98.0312 615.437 99.2292 615.791 100.312C616.145 101.396 616.666 102.323 617.354 103.094C618.041 103.865 618.875 104.469 619.854 104.906C620.833 105.344 621.948 105.562 623.198 105.562C624.739 105.562 626.208 105.271 627.604 104.688C629 104.083 630.208 103.146 631.229 101.875L635.791 107.094C635.104 108.094 634.135 109.062 632.885 110C631.656 110.917 630.177 111.667 628.448 112.25C626.718 112.833 624.76 113.125 622.573 113.125ZM649.886 86.5625V112.5H640.136V78.6875H649.293L649.886 86.5625ZM659.98 78.4375L659.824 87.5312C659.407 87.4688 658.865 87.4167 658.199 87.375C657.532 87.3125 656.959 87.2812 656.48 87.2812C655.23 87.2812 654.147 87.4375 653.23 87.75C652.334 88.0417 651.584 88.4792 650.98 89.0625C650.397 89.6458 649.959 90.375 649.668 91.25C649.376 92.1042 649.23 93.0938 649.23 94.2188L647.386 93.3125C647.386 91.0833 647.605 89.0417 648.043 87.1875C648.48 85.3333 649.115 83.7292 649.949 82.375C650.782 81 651.803 79.9375 653.011 79.1875C654.22 78.4375 655.595 78.0625 657.136 78.0625C657.636 78.0625 658.147 78.0938 658.668 78.1562C659.188 78.2188 659.626 78.3125 659.98 78.4375ZM680.7 103.094C680.7 102.469 680.502 101.917 680.106 101.438C679.731 100.958 679.044 100.521 678.044 100.125C677.065 99.7292 675.679 99.3333 673.888 98.9375C672.2 98.5833 670.627 98.125 669.169 97.5625C667.71 96.9792 666.44 96.2812 665.356 95.4688C664.273 94.6354 663.429 93.6562 662.825 92.5312C662.221 91.3854 661.919 90.0833 661.919 88.625C661.919 87.2083 662.221 85.8646 662.825 84.5938C663.45 83.3229 664.346 82.1979 665.513 81.2188C666.7 80.2396 668.138 79.4688 669.825 78.9062C671.533 78.3438 673.471 78.0625 675.638 78.0625C678.617 78.0625 681.19 78.5312 683.356 79.4688C685.523 80.3854 687.19 81.6771 688.356 83.3438C689.523 84.9896 690.106 86.875 690.106 89H680.356C680.356 88.125 680.19 87.3646 679.856 86.7188C679.523 86.0729 679.013 85.5729 678.325 85.2188C677.638 84.8438 676.731 84.6562 675.606 84.6562C674.731 84.6562 673.96 84.8125 673.294 85.125C672.648 85.4167 672.138 85.8229 671.763 86.3438C671.408 86.8646 671.231 87.4688 671.231 88.1562C671.231 88.6354 671.335 89.0729 671.544 89.4688C671.773 89.8438 672.117 90.1979 672.575 90.5312C673.054 90.8438 673.669 91.125 674.419 91.375C675.19 91.625 676.127 91.8646 677.231 92.0938C679.585 92.5312 681.731 93.1458 683.669 93.9375C685.627 94.7292 687.19 95.8229 688.356 97.2188C689.544 98.6146 690.138 100.458 690.138 102.75C690.138 104.25 689.794 105.625 689.106 106.875C688.44 108.125 687.471 109.219 686.2 110.156C684.929 111.094 683.408 111.823 681.638 112.344C679.867 112.865 677.867 113.125 675.638 113.125C672.45 113.125 669.752 112.552 667.544 111.406C665.335 110.26 663.669 108.823 662.544 107.094C661.44 105.344 660.888 103.552 660.888 101.719H670.044C670.085 102.844 670.367 103.76 670.888 104.469C671.429 105.177 672.127 105.698 672.981 106.031C673.835 106.344 674.794 106.5 675.856 106.5C676.919 106.5 677.804 106.354 678.513 106.062C679.221 105.771 679.763 105.375 680.138 104.875C680.513 104.354 680.7 103.76 680.7 103.094ZM704.576 78.6875V112.5H694.795V78.6875H704.576ZM694.201 69.9375C694.201 68.5208 694.701 67.3646 695.701 66.4688C696.701 65.5521 698.014 65.0938 699.639 65.0938C701.264 65.0938 702.576 65.5521 703.576 66.4688C704.597 67.3646 705.108 68.5208 705.108 69.9375C705.108 71.3333 704.597 72.4896 703.576 73.4062C702.576 74.3021 701.264 74.75 699.639 74.75C698.014 74.75 696.701 74.3021 695.701 73.4062C694.701 72.4896 694.201 71.3333 694.201 69.9375ZM727.515 78.6875V85.5312H707.453V78.6875H727.515ZM712.046 70.3125H721.828V101.906C721.828 102.844 721.942 103.562 722.171 104.062C722.4 104.562 722.775 104.917 723.296 105.125C723.817 105.312 724.484 105.406 725.296 105.406C725.88 105.406 726.38 105.385 726.796 105.344C727.213 105.302 727.598 105.25 727.953 105.188V112.25C727.119 112.521 726.234 112.729 725.296 112.875C724.359 113.042 723.338 113.125 722.234 113.125C720.13 113.125 718.307 112.781 716.765 112.094C715.244 111.406 714.078 110.323 713.265 108.844C712.453 107.344 712.046 105.396 712.046 103V70.3125ZM741.11 108.594L749.954 78.6875H760.454L746.86 117.562C746.568 118.417 746.172 119.333 745.672 120.312C745.193 121.292 744.537 122.229 743.704 123.125C742.891 124.021 741.85 124.75 740.579 125.312C739.308 125.875 737.745 126.156 735.891 126.156C734.954 126.156 734.225 126.104 733.704 126C733.204 125.917 732.537 125.771 731.704 125.562L731.672 118.469C731.943 118.469 732.183 118.469 732.391 118.469C732.62 118.49 732.85 118.5 733.079 118.5C734.245 118.5 735.183 118.375 735.891 118.125C736.62 117.875 737.183 117.5 737.579 117C737.995 116.521 738.329 115.906 738.579 115.156L741.11 108.594ZM738.141 78.6875L745.141 102.75L746.329 113.094L739.735 113.438L727.641 78.6875H738.141Z" fill="#FCFCFD"/>
</svg>
