<svg width="1200" height="115" viewBox="0 0 1200 115" fill="none" xmlns="http://www.w3.org/2000/svg">
<g clip-path="url(#clip0_585_5646)">
<rect width="1200" height="115" fill="#EDF3FF"/>
<path fill-rule="evenodd" clip-rule="evenodd" d="M-157 -98.8043V-55.3555C-156.916 -55.3558 -156.832 -55.356 -156.748 -55.356C-129.643 -55.356 -107.072 -35.9276 -102.206 -10.2411C-126.128 -7.53252 -146.429 7.123 -157 27.615V71.0638C-156.916 71.063 -156.832 71.063 -156.748 71.063C-129.383 71.063 -106.639 90.8661 -102.07 116.92C-126.052 119.588 -146.409 134.26 -157 154.791V198.24C-156.916 198.239 -156.832 198.239 -156.748 198.239C-129.904 198.239 -107.507 217.295 -102.351 242.614C-113.413 243.889 -124.832 247.72 -133.733 253.5H-54.6044C-63.3735 247.806 -74.6195 244.003 -85.4943 242.672C-80.3674 217.352 -57.9965 198.279 -31.1715 198.239H-30.9996C-4.1738 198.279 18.1948 217.352 23.3227 242.673C12.4484 244.003 1.20165 247.806 -7.56668 253.5H71.5618C62.8593 247.849 51.6996 244.061 40.9192 242.703C46.0206 217.437 68.287 198.385 95.025 198.24L95.1355 198.239H95.3331H95.3376C122.188 198.241 144.593 217.312 149.736 242.642C138.767 243.947 127.435 247.763 118.6 253.5H197.729C188.894 247.763 177.561 243.947 166.593 242.642C171.736 217.31 194.142 198.239 220.995 198.239H221.132L221.304 198.24C221.369 198.241 221.435 198.241 221.5 198.241V154.791C221.415 154.955 221.331 155.12 221.248 155.285C210.767 134.566 190.378 119.712 166.313 116.948C170.869 90.8813 193.621 71.063 220.995 71.063H221.132L221.304 71.0638C221.369 71.0645 221.435 71.0645 221.5 71.0653V27.615C221.415 27.7793 221.331 27.9435 221.248 28.1086C210.785 7.42882 190.455 -7.40913 166.448 -10.2123C171.302 -35.9125 193.882 -55.356 220.995 -55.356L221.132 -55.3559L221.304 -55.3552C221.369 -55.3548 221.435 -55.3543 221.5 -55.3537V-98.8044C221.415 -98.6401 221.331 -98.4755 221.248 -98.3104C215.797 -109.084 207.667 -118.273 197.735 -125H118.594C108.662 -118.273 100.531 -109.085 95.081 -98.3104C89.6306 -109.085 81.5004 -118.273 71.5678 -125H-7.57274C-17.5053 -118.273 -25.6348 -109.085 -31.0859 -98.3107C-36.5363 -109.085 -44.6657 -118.273 -54.5983 -125H-133.739C-143.52 -118.376 -151.552 -109.365 -157 -98.8043ZM-93.8084 4.44852L-93.9466 4.44777L-94.0386 4.44701H-94.1689C-123.593 4.44701 -147.67 27.3387 -149.562 56.2841C-125.27 58.7375 -104.612 73.496 -93.9164 94.2325C-83.2945 73.6383 -62.8481 58.9404 -38.7717 56.3363C-40.6309 27.4848 -64.5309 4.63398 -93.8084 4.44852ZM-85.6388 -10.1835C-80.8019 -35.8708 -58.2569 -55.3151 -31.1715 -55.3559H-30.9996C-3.91339 -55.3151 18.6293 -35.8716 23.4673 -10.1835C-0.431963 -7.30693 -20.6598 7.49998 -31.0859 28.1086C-41.5121 7.49998 -61.7399 -7.30693 -85.6388 -10.1835ZM40.7746 -10.1533C64.5663 -7.20474 84.6912 7.57114 95.081 28.1086C105.543 7.42882 125.874 -7.40913 149.881 -10.2123C145.028 -35.9117 122.45 -55.354 95.3376 -55.356H95.3331L95.1355 -55.3558L95.025 -55.3552C68.0273 -55.2086 45.5876 -35.786 40.7746 -10.1533ZM-93.9164 -32.1865C-104.612 -52.9231 -125.27 -67.6818 -149.562 -70.1351C-147.67 -99.0804 -123.593 -121.972 -94.1689 -121.972C-64.727 -121.972 -40.6385 -99.0528 -38.7717 -70.0828C-62.8481 -67.4784 -83.2945 -52.7805 -93.9164 -32.1865ZM-23.3993 -70.0828C0.965466 -67.447 21.6141 -52.4257 32.1236 -31.4424C42.5974 -52.3536 63.1401 -67.3436 87.3967 -70.0551C85.5428 -99.0382 61.4483 -121.972 31.9979 -121.972C2.55592 -121.972 -21.5326 -99.0527 -23.3993 -70.0828ZM158.164 -32.1857C147.506 -52.8518 126.954 -67.5803 102.769 -70.1095C104.649 -99.0668 128.732 -121.972 158.164 -121.972C187.597 -121.972 211.679 -99.0668 213.56 -70.1094C189.374 -67.5803 168.823 -52.8518 158.164 -32.1857ZM-31.0859 155.285C-41.531 134.637 -61.8156 119.813 -85.7731 116.977C-81.2341 90.9229 -58.5173 71.1046 -31.1715 71.063H-30.9996C-3.65374 71.1046 19.0615 90.9222 23.6013 116.977C-0.356264 119.813 -20.6401 134.637 -31.0859 155.285ZM95.081 155.285C84.6715 134.709 64.4906 119.915 40.6413 117.006C45.1568 91.0085 67.7677 71.2121 95.025 71.0638L95.1355 71.063H95.3331H95.3376C122.709 71.0653 145.46 90.8828 150.016 116.948C125.95 119.712 105.562 134.566 95.081 155.285ZM-23.3993 56.3363C0.965466 58.9722 21.6141 73.9934 32.1236 94.9766C42.5974 74.0653 63.1401 59.0752 87.3967 56.3636C85.5428 27.3811 61.4483 4.44701 31.9979 4.44701C2.55592 4.44701 -21.5326 27.3659 -23.3993 56.3363ZM158.164 94.2333C147.506 73.5672 126.954 58.839 102.769 56.3098C104.649 27.3523 128.732 4.44701 158.164 4.44701C187.597 4.44701 211.679 27.3523 213.56 56.3098C189.374 58.839 168.823 73.5672 158.164 94.2333ZM-93.9164 221.409C-104.612 200.672 -125.27 185.914 -149.562 183.46C-147.67 154.515 -123.593 131.623 -94.1689 131.623C-64.727 131.623 -40.6385 154.542 -38.7717 183.512C-62.8481 186.116 -83.2945 200.814 -93.9164 221.409ZM-23.3993 183.512C0.965466 186.148 21.6141 201.169 32.1236 222.153C42.5974 201.241 63.1401 186.251 87.3967 183.54C85.5428 154.557 61.4483 131.623 31.9979 131.623C2.55592 131.623 -21.5326 154.542 -23.3993 183.512ZM158.164 221.409C147.506 200.743 126.954 186.015 102.769 183.486C104.649 154.528 128.732 131.623 158.164 131.623C187.597 131.623 211.679 154.528 213.56 183.486C189.374 186.015 168.823 200.743 158.164 221.409Z" fill="#DCE7FF"/>
<path fill-rule="evenodd" clip-rule="evenodd" d="M221.5 -98.8043V-55.3555C221.584 -55.3558 221.668 -55.356 221.752 -55.356C248.857 -55.356 271.428 -35.9276 276.294 -10.2411C252.372 -7.53252 232.071 7.123 221.5 27.615V71.0638C221.584 71.063 221.668 71.063 221.752 71.063C249.117 71.063 271.861 90.8661 276.43 116.92C252.448 119.588 232.091 134.26 221.5 154.791V198.24C221.584 198.239 221.668 198.239 221.752 198.239C248.596 198.239 270.993 217.295 276.149 242.614C265.087 243.889 253.668 247.72 244.767 253.5H323.896C315.127 247.806 303.881 244.003 293.006 242.672C298.133 217.352 320.503 198.279 347.329 198.239H347.5C374.326 198.279 396.695 217.352 401.823 242.673C390.948 244.003 379.702 247.806 370.933 253.5H450.062C441.359 247.849 430.2 244.061 419.419 242.703C424.521 217.437 446.787 198.385 473.525 198.24L473.636 198.239H473.833H473.838C500.688 198.241 523.093 217.312 528.236 242.642C517.267 243.947 505.935 247.763 497.1 253.5H576.229C567.394 247.763 556.061 243.947 545.093 242.642C550.236 217.31 572.642 198.239 599.495 198.239H599.632L599.804 198.24C599.869 198.241 599.935 198.241 600 198.241V154.791C599.915 154.955 599.831 155.12 599.748 155.285C589.267 134.566 568.878 119.712 544.813 116.948C549.369 90.8813 572.121 71.063 599.495 71.063H599.632L599.804 71.0638C599.869 71.0645 599.935 71.0645 600 71.0653V27.615C599.915 27.7793 599.831 27.9435 599.748 28.1086C589.285 7.42883 568.955 -7.40913 544.948 -10.2123C549.802 -35.9125 572.382 -55.356 599.495 -55.356L599.632 -55.3559L599.804 -55.3552C599.869 -55.3548 599.935 -55.3543 600 -55.3537V-98.8044C599.915 -98.6401 599.831 -98.4755 599.748 -98.3104C594.297 -109.084 586.167 -118.273 576.235 -125H497.094C487.162 -118.273 479.031 -109.085 473.581 -98.3104C468.131 -109.085 460 -118.273 450.068 -125H370.927C360.995 -118.273 352.865 -109.085 347.414 -98.3107C341.964 -109.085 333.834 -118.273 323.902 -125H244.761C234.98 -118.376 226.948 -109.365 221.5 -98.8043ZM284.692 4.44852L284.553 4.44777L284.461 4.44701H284.331C254.907 4.44701 230.83 27.3387 228.938 56.2841C253.23 58.7375 273.888 73.496 284.584 94.2325C295.205 73.6383 315.652 58.9404 339.728 56.3363C337.869 27.4848 313.969 4.63399 284.692 4.44852ZM292.861 -10.1835C297.698 -35.8708 320.243 -55.3151 347.329 -55.3559H347.5C374.587 -55.3151 397.129 -35.8716 401.967 -10.1835C378.068 -7.30693 357.84 7.49998 347.414 28.1086C336.988 7.49998 316.76 -7.30693 292.861 -10.1835ZM419.275 -10.1533C443.066 -7.20474 463.191 7.57115 473.581 28.1086C484.043 7.42883 504.374 -7.40913 528.381 -10.2123C523.528 -35.9117 500.95 -55.354 473.838 -55.356H473.833L473.636 -55.3558L473.525 -55.3552C446.527 -55.2086 424.088 -35.786 419.275 -10.1533ZM284.584 -32.1865C273.888 -52.9231 253.23 -67.6818 228.938 -70.1351C230.83 -99.0804 254.907 -121.972 284.331 -121.972C313.773 -121.972 337.861 -99.0528 339.728 -70.0828C315.652 -67.4784 295.205 -52.7805 284.584 -32.1865ZM355.101 -70.0828C379.465 -67.447 400.114 -52.4257 410.624 -31.4424C421.097 -52.3536 441.64 -67.3436 465.897 -70.0551C464.043 -99.0382 439.948 -121.972 410.498 -121.972C381.056 -121.972 356.967 -99.0527 355.101 -70.0828ZM536.664 -32.1857C526.006 -52.8518 505.454 -67.5803 481.269 -70.1095C483.149 -99.0668 507.232 -121.972 536.664 -121.972C566.097 -121.972 590.179 -99.0668 592.06 -70.1094C567.874 -67.5803 547.323 -52.8518 536.664 -32.1857ZM347.414 155.285C336.969 134.637 316.684 119.813 292.727 116.977C297.266 90.9229 319.983 71.1046 347.329 71.063H347.5C374.846 71.1046 397.562 90.9221 402.101 116.977C378.144 119.813 357.86 134.637 347.414 155.285ZM473.581 155.285C463.172 134.709 442.991 119.915 419.141 117.006C423.657 91.0085 446.268 71.2121 473.525 71.0638L473.636 71.063H473.833H473.838C501.209 71.0653 523.96 90.8828 528.516 116.948C504.45 119.712 484.062 134.566 473.581 155.285ZM355.101 56.3363C379.465 58.9722 400.114 73.9933 410.624 94.9766C421.097 74.0653 441.64 59.0751 465.897 56.3636C464.043 27.3811 439.948 4.44701 410.498 4.44701C381.056 4.44701 356.967 27.3659 355.101 56.3363ZM536.664 94.2333C526.006 73.5672 505.454 58.839 481.269 56.3098C483.149 27.3523 507.232 4.44701 536.664 4.44701C566.097 4.44701 590.179 27.3523 592.06 56.3098C567.874 58.839 547.323 73.5672 536.664 94.2333ZM284.584 221.409C273.888 200.672 253.23 185.914 228.938 183.46C230.83 154.515 254.907 131.623 284.331 131.623C313.773 131.623 337.861 154.542 339.728 183.512C315.652 186.116 295.205 200.814 284.584 221.409ZM355.101 183.512C379.465 186.148 400.114 201.169 410.624 222.153C421.097 201.241 441.64 186.251 465.897 183.54C464.043 154.557 439.948 131.623 410.498 131.623C381.056 131.623 356.967 154.542 355.101 183.512ZM536.664 221.409C526.006 200.743 505.454 186.015 481.269 183.486C483.149 154.528 507.232 131.623 536.664 131.623C566.097 131.623 590.179 154.528 592.06 183.486C567.874 186.015 547.323 200.743 536.664 221.409Z" fill="#DCE7FF"/>
<path fill-rule="evenodd" clip-rule="evenodd" d="M600 -98.8043V-55.3555C600.084 -55.3558 600.168 -55.356 600.252 -55.356C627.357 -55.356 649.928 -35.9276 654.794 -10.2411C630.872 -7.53252 610.571 7.123 600 27.615V71.0638C600.084 71.063 600.168 71.063 600.252 71.063C627.617 71.063 650.361 90.8661 654.93 116.92C630.948 119.588 610.591 134.26 600 154.791V198.24C600.084 198.239 600.168 198.239 600.252 198.239C627.096 198.239 649.493 217.295 654.649 242.614C643.587 243.889 632.168 247.72 623.267 253.5H702.396C693.627 247.806 682.381 244.003 671.506 242.672C676.633 217.352 699.003 198.279 725.829 198.239H726C752.826 198.279 775.195 217.352 780.323 242.673C769.448 244.003 758.202 247.806 749.433 253.5H828.562C819.859 247.849 808.7 244.061 797.919 242.703C803.021 217.437 825.287 198.385 852.025 198.24L852.136 198.239H852.333H852.338C879.188 198.241 901.593 217.312 906.736 242.642C895.767 243.947 884.435 247.763 875.6 253.5H954.729C945.894 247.763 934.561 243.947 923.593 242.642C928.736 217.31 951.142 198.239 977.995 198.239H978.132L978.304 198.24C978.369 198.241 978.435 198.241 978.5 198.241V154.791C978.415 154.955 978.331 155.12 978.248 155.285C967.767 134.566 947.378 119.712 923.313 116.948C927.869 90.8813 950.621 71.063 977.995 71.063H978.132L978.304 71.0638C978.369 71.0645 978.435 71.0645 978.5 71.0653V27.615C978.415 27.7793 978.331 27.9435 978.248 28.1086C967.785 7.42883 947.455 -7.40913 923.448 -10.2123C928.302 -35.9125 950.882 -55.356 977.995 -55.356L978.132 -55.3559L978.304 -55.3552C978.369 -55.3548 978.435 -55.3543 978.5 -55.3537V-98.8044C978.415 -98.6401 978.331 -98.4755 978.248 -98.3104C972.797 -109.084 964.667 -118.273 954.735 -125H875.594C865.662 -118.273 857.531 -109.085 852.081 -98.3104C846.631 -109.085 838.5 -118.273 828.568 -125H749.427C739.495 -118.273 731.365 -109.085 725.914 -98.3107C720.464 -109.085 712.334 -118.273 702.402 -125H623.261C613.48 -118.376 605.448 -109.365 600 -98.8043ZM663.192 4.44852L663.053 4.44777L662.961 4.44701H662.831C633.407 4.44701 609.33 27.3387 607.438 56.2841C631.73 58.7375 652.388 73.496 663.084 94.2325C673.705 73.6383 694.152 58.9404 718.228 56.3363C716.369 27.4848 692.469 4.63399 663.192 4.44852ZM671.361 -10.1835C676.198 -35.8708 698.743 -55.3151 725.829 -55.3559H726C753.087 -55.3151 775.629 -35.8716 780.467 -10.1835C756.568 -7.30693 736.34 7.49998 725.914 28.1086C715.488 7.49998 695.26 -7.30693 671.361 -10.1835ZM797.775 -10.1533C821.566 -7.20474 841.691 7.57115 852.081 28.1086C862.543 7.42883 882.874 -7.40913 906.881 -10.2123C902.028 -35.9117 879.45 -55.354 852.338 -55.356H852.333L852.136 -55.3558L852.025 -55.3552C825.027 -55.2086 802.588 -35.786 797.775 -10.1533ZM663.084 -32.1865C652.388 -52.9231 631.73 -67.6818 607.438 -70.1351C609.33 -99.0804 633.407 -121.972 662.831 -121.972C692.273 -121.972 716.361 -99.0528 718.228 -70.0828C694.152 -67.4784 673.705 -52.7805 663.084 -32.1865ZM733.601 -70.0828C757.965 -67.447 778.614 -52.4257 789.124 -31.4424C799.597 -52.3536 820.14 -67.3436 844.397 -70.0551C842.543 -99.0382 818.448 -121.972 788.998 -121.972C759.556 -121.972 735.467 -99.0527 733.601 -70.0828ZM915.164 -32.1857C904.506 -52.8518 883.954 -67.5803 859.769 -70.1095C861.649 -99.0668 885.732 -121.972 915.164 -121.972C944.597 -121.972 968.679 -99.0668 970.56 -70.1094C946.374 -67.5803 925.823 -52.8518 915.164 -32.1857ZM725.914 155.285C715.469 134.637 695.184 119.813 671.227 116.977C675.766 90.9229 698.483 71.1046 725.829 71.063H726C753.346 71.1046 776.062 90.9221 780.601 116.977C756.644 119.813 736.36 134.637 725.914 155.285ZM852.081 155.285C841.672 134.709 821.491 119.915 797.641 117.006C802.157 91.0085 824.768 71.2121 852.025 71.0638L852.136 71.063H852.333H852.338C879.709 71.0653 902.46 90.8828 907.016 116.948C882.95 119.712 862.562 134.566 852.081 155.285ZM733.601 56.3363C757.965 58.9722 778.614 73.9933 789.124 94.9766C799.597 74.0653 820.14 59.0751 844.397 56.3636C842.543 27.3811 818.448 4.44701 788.998 4.44701C759.556 4.44701 735.467 27.3659 733.601 56.3363ZM915.164 94.2333C904.506 73.5672 883.954 58.839 859.769 56.3098C861.649 27.3523 885.732 4.44701 915.164 4.44701C944.597 4.44701 968.679 27.3523 970.56 56.3098C946.374 58.839 925.823 73.5672 915.164 94.2333ZM663.084 221.409C652.388 200.672 631.73 185.914 607.438 183.46C609.33 154.515 633.407 131.623 662.831 131.623C692.273 131.623 716.361 154.542 718.228 183.512C694.152 186.116 673.705 200.814 663.084 221.409ZM733.601 183.512C757.965 186.148 778.614 201.169 789.124 222.153C799.597 201.241 820.14 186.251 844.397 183.54C842.543 154.557 818.448 131.623 788.998 131.623C759.556 131.623 735.467 154.542 733.601 183.512ZM915.164 221.409C904.506 200.743 883.954 186.015 859.769 183.486C861.649 154.528 885.732 131.623 915.164 131.623C944.597 131.623 968.679 154.528 970.56 183.486C946.374 186.015 925.823 200.743 915.164 221.409Z" fill="#DCE7FF"/>
<path fill-rule="evenodd" clip-rule="evenodd" d="M978.5 -98.8043V-55.3555C978.584 -55.3558 978.668 -55.356 978.752 -55.356C1005.86 -55.356 1028.43 -35.9276 1033.29 -10.2411C1009.37 -7.53252 989.071 7.123 978.5 27.615V71.0638C978.584 71.063 978.668 71.063 978.752 71.063C1006.12 71.063 1028.86 90.8661 1033.43 116.92C1009.45 119.588 989.091 134.26 978.5 154.791V198.24C978.584 198.239 978.668 198.239 978.752 198.239C1005.6 198.239 1027.99 217.295 1033.15 242.614C1022.09 243.889 1010.67 247.72 1001.77 253.5H1080.9C1072.13 247.806 1060.88 244.003 1050.01 242.672C1055.13 217.352 1077.5 198.279 1104.33 198.239H1104.5C1131.33 198.279 1153.69 217.352 1158.82 242.673C1147.95 244.003 1136.7 247.806 1127.93 253.5H1207.06C1198.36 247.849 1187.2 244.061 1176.42 242.703C1181.52 217.437 1203.79 198.385 1230.52 198.24L1230.64 198.239H1230.83H1230.84C1257.69 198.241 1280.09 217.312 1285.24 242.642C1274.27 243.947 1262.94 247.763 1254.1 253.5H1333.23C1324.39 247.763 1313.06 243.947 1302.09 242.642C1307.24 217.31 1329.64 198.239 1356.5 198.239H1356.63L1356.8 198.24C1356.87 198.241 1356.93 198.241 1357 198.241V154.791C1356.92 154.955 1356.83 155.12 1356.75 155.285C1346.27 134.566 1325.88 119.712 1301.81 116.948C1306.37 90.8813 1329.12 71.063 1356.5 71.063H1356.63L1356.8 71.0638C1356.87 71.0645 1356.93 71.0645 1357 71.0653V27.615C1356.92 27.7793 1356.83 27.9435 1356.75 28.1086C1346.29 7.42883 1325.95 -7.40913 1301.95 -10.2123C1306.8 -35.9125 1329.38 -55.356 1356.5 -55.356L1356.63 -55.3559L1356.8 -55.3552C1356.87 -55.3548 1356.93 -55.3543 1357 -55.3537V-98.8044C1356.92 -98.6401 1356.83 -98.4755 1356.75 -98.3104C1351.3 -109.084 1343.17 -118.273 1333.23 -125H1254.09C1244.16 -118.273 1236.03 -109.085 1230.58 -98.3104C1225.13 -109.085 1217 -118.273 1207.07 -125H1127.93C1117.99 -118.273 1109.87 -109.085 1104.41 -98.3107C1098.96 -109.085 1090.83 -118.273 1080.9 -125H1001.76C991.98 -118.376 983.948 -109.365 978.5 -98.8043ZM1041.69 4.44852L1041.55 4.44777L1041.46 4.44701H1041.33C1011.91 4.44701 987.83 27.3387 985.938 56.2841C1010.23 58.7375 1030.89 73.496 1041.58 94.2325C1052.21 73.6383 1072.65 58.9404 1096.73 56.3363C1094.87 27.4848 1070.97 4.63399 1041.69 4.44852ZM1049.86 -10.1835C1054.7 -35.8708 1077.24 -55.3151 1104.33 -55.3559H1104.5C1131.59 -55.3151 1154.13 -35.8716 1158.97 -10.1835C1135.07 -7.30693 1114.84 7.49998 1104.41 28.1086C1093.99 7.49998 1073.76 -7.30693 1049.86 -10.1835ZM1176.27 -10.1533C1200.07 -7.20474 1220.19 7.57115 1230.58 28.1086C1241.04 7.42883 1261.37 -7.40913 1285.38 -10.2123C1280.53 -35.9117 1257.95 -55.354 1230.84 -55.356H1230.83L1230.64 -55.3558L1230.52 -55.3552C1203.53 -55.2086 1181.09 -35.786 1176.27 -10.1533ZM1041.58 -32.1865C1030.89 -52.9231 1010.23 -67.6818 985.938 -70.1351C987.83 -99.0804 1011.91 -121.972 1041.33 -121.972C1070.77 -121.972 1094.86 -99.0528 1096.73 -70.0828C1072.65 -67.4784 1052.21 -52.7805 1041.58 -32.1865ZM1112.1 -70.0828C1136.47 -67.447 1157.11 -52.4257 1167.62 -31.4424C1178.1 -52.3536 1198.64 -67.3436 1222.9 -70.0551C1221.04 -99.0382 1196.95 -121.972 1167.5 -121.972C1138.06 -121.972 1113.97 -99.0527 1112.1 -70.0828ZM1293.66 -32.1857C1283.01 -52.8518 1262.45 -67.5803 1238.27 -70.1095C1240.15 -99.0668 1264.23 -121.972 1293.66 -121.972C1323.1 -121.972 1347.18 -99.0668 1349.06 -70.1094C1324.87 -67.5803 1304.32 -52.8518 1293.66 -32.1857ZM1104.41 155.285C1093.97 134.637 1073.68 119.813 1049.73 116.977C1054.27 90.9229 1076.98 71.1046 1104.33 71.063H1104.5C1131.85 71.1046 1154.56 90.9221 1159.1 116.977C1135.14 119.813 1114.86 134.637 1104.41 155.285ZM1230.58 155.285C1220.17 134.709 1199.99 119.915 1176.14 117.006C1180.66 91.0085 1203.27 71.2121 1230.52 71.0638L1230.64 71.063H1230.83H1230.84C1258.21 71.0653 1280.96 90.8828 1285.52 116.948C1261.45 119.712 1241.06 134.566 1230.58 155.285ZM1112.1 56.3363C1136.47 58.9722 1157.11 73.9933 1167.62 94.9766C1178.1 74.0653 1198.64 59.0751 1222.9 56.3636C1221.04 27.3811 1196.95 4.44701 1167.5 4.44701C1138.06 4.44701 1113.97 27.3659 1112.1 56.3363ZM1293.66 94.2333C1283.01 73.5672 1262.45 58.839 1238.27 56.3098C1240.15 27.3523 1264.23 4.44701 1293.66 4.44701C1323.1 4.44701 1347.18 27.3523 1349.06 56.3098C1324.87 58.839 1304.32 73.5672 1293.66 94.2333ZM1041.58 221.409C1030.89 200.672 1010.23 185.914 985.938 183.46C987.83 154.515 1011.91 131.623 1041.33 131.623C1070.77 131.623 1094.86 154.542 1096.73 183.512C1072.65 186.116 1052.21 200.814 1041.58 221.409ZM1112.1 183.512C1136.47 186.148 1157.11 201.169 1167.62 222.153C1178.1 201.241 1198.64 186.251 1222.9 183.54C1221.04 154.557 1196.95 131.623 1167.5 131.623C1138.06 131.623 1113.97 154.542 1112.1 183.512ZM1293.66 221.409C1283.01 200.743 1262.45 186.015 1238.27 183.486C1240.15 154.528 1264.23 131.623 1293.66 131.623C1323.1 131.623 1347.18 154.528 1349.06 183.486C1324.87 186.015 1304.32 200.743 1293.66 221.409Z" fill="#DCE7FF"/>
</g>
<defs>
<clipPath id="clip0_585_5646">
<rect width="1200" height="115" fill="white"/>
</clipPath>
</defs>
</svg>
