<svg width="38" height="36" viewBox="0 0 38 36" fill="none" xmlns="http://www.w3.org/2000/svg">
<path d="M32.0796 11.3603C27.0319 4.90289 19.3237 2.37449 15.7098 5.99042C14.9504 6.75209 14.5713 7.75779 13.3753 12.399C12.7513 14.8136 12.5028 15.4514 12.1987 15.5061C8.78482 15.942 7.79897 18.3069 9.66625 21.6378C10.6492 23.4124 10.9947 23.8349 12.5501 25.3151C12.9638 25.6998 12.0409 28.621 11.057 32.599C10.1074 35.5122 12.4795 34.9259 14.8905 32.3172C19.0481 27.8318 18.3021 28.3359 20.6178 28.372C24.4157 28.4282 28.5053 26.9587 29.7098 25.1093C29.9546 24.7464 29.9398 24.2771 29.6841 23.8959C29.6744 23.8785 28.5765 22.2585 28.5862 22.2759C30.3928 20.0247 32.6674 17.4917 33.4581 15.7805C34.2392 14.0519 33.5216 13.199 32.0796 11.3603ZM13.9773 30.7086C13.7897 30.8126 14.6364 27.0697 14.6935 26.8107C14.8433 27.0006 15.7545 27.519 16.6969 27.6108C16.7621 27.6884 14.2843 30.5386 13.9773 30.7086ZM29.1446 17.3285C28.3147 18.0838 25.9874 20.9643 25.2673 22.159C24.7407 23.019 24.7354 23.0901 25.1461 23.5902C26.697 25.5049 26.7319 25.3264 24.6638 25.858C19.9729 27.0467 10.6925 21.4786 11.0364 17.6732C11.1315 16.5974 12.4143 17.1828 13.3424 18.7377C14.3186 20.3796 17.2909 22.3254 18.6901 22.4371C19.5087 22.5066 19.5459 21.8494 19.2189 21.6213C15.1782 18.994 14.953 17.8228 14.7811 17.1905C14.7811 17.1905 16.6441 10.2928 16.7806 9.69429C17.3038 7.54023 18.425 6.82824 20.398 7.37235C24.0431 8.39995 27.9036 11.1043 30.2432 14.2418C30.8467 15.0898 30.4869 16.1303 29.1446 17.3285Z" fill="#FBB714"/>
</svg>
